<svg xmlns="http://www.w3.org/2000/svg" width="16" height="16" viewBox="0 0 16 16">
    <g fill="none" fill-rule="evenodd">
        <g fill="#7B53EF">
            <g>
                <g>
                    <path d="M10.409.806l.063.056c.24.24.259.618.055.88l-.055.063-1.805 1.804v3.236l2.801-1.618.662-2.465c.095-.356.46-.567.816-.471.329.088.534.406.488.734l-.016.082-.56 2.088 2.088.56c.329.088.534.406.488.734l-.016.082c-.088.329-.406.534-.735.488l-.082-.016-2.465-.661L9.334 8l2.801 1.618 2.466-.66.082-.017c.329-.046.647.16.735.488l.016.082c.046.328-.16.646-.488.734l-2.088.56.56 2.088.016.082c.046.328-.16.646-.488.734-.355.096-.72-.115-.816-.471l-.662-2.465-2.801-1.618v3.236l1.805 1.804c.26.26.26.683 0 .943-.24.24-.619.259-.88.056l-.063-.056L8 13.61l-1.528 1.53c-.24.24-.619.258-.88.055l-.063-.056c-.24-.24-.259-.618-.056-.88l.056-.063 1.804-1.805V9.155L4.53 10.773l-.66 2.465c-.095.356-.46.567-.816.471-.328-.088-.533-.406-.488-.734l.017-.082.559-2.088-2.088-.56c-.328-.088-.533-.406-.488-.734l.017-.082c.088-.329.406-.534.734-.488l.082.016 2.466.66L6.666 8 3.864 6.382l-2.465.66-.082.017C.99 7.105.671 6.9.583 6.571L.566 6.49c-.045-.328.16-.646.488-.734l2.088-.56-.56-2.088-.016-.082c-.045-.328.16-.646.488-.734.356-.096.721.115.817.471l.659 2.465 2.803 1.618V3.61L5.529 1.805c-.26-.26-.26-.683 0-.943.24-.24.618-.259.88-.056l.063.056L8 2.39 9.53.862c.24-.24.618-.259.88-.056z" transform="translate(-203 -128) translate(0 112) translate(203 16)"/>
                </g>
            </g>
        </g>
    </g>
</svg>
