<svg xmlns="http://www.w3.org/2000/svg" width="22" height="22" viewBox="0 0 22 22">
    <g fill="none" fill-opacity=".88" fill-rule="evenodd">
        <g class="fill">
            <g>
                <g>
                    <g>
                        <path d="M11.917 12.833c2.464 0 4.475 1.946 4.579 4.385l.004.199v1.833c0 .506-.41.917-.917.917-.47 0-.857-.354-.91-.81l-.006-.107v-1.833c0-1.465-1.145-2.662-2.589-2.746l-.161-.004H4.583c-1.464 0-2.661 1.145-2.745 2.588l-.005.162v1.833c0 .506-.41.917-.916.917-.47 0-.858-.354-.91-.81L0 19.25v-1.833c0-2.465 1.945-4.475 4.385-4.58l.198-.004h7.334zm6.645.149c1.955.504 3.342 2.225 3.433 4.227l.005.208v1.833c0 .506-.41.917-.917.917-.47 0-.857-.354-.91-.81l-.006-.107v-1.833c-.001-1.253-.85-2.347-2.063-2.66-.49-.127-.785-.627-.658-1.117.126-.49.626-.785 1.116-.658zM8.25 1.833c2.531 0 4.583 2.052 4.583 4.584C12.833 8.948 10.781 11 8.25 11S3.667 8.948 3.667 6.417c0-2.532 2.052-4.584 4.583-4.584zm6.644.148c2.028.52 3.447 2.347 3.447 4.44 0 2.094-1.419 3.921-3.447 4.44-.49.126-.99-.17-1.115-.66-.126-.49.17-.99.66-1.116 1.217-.311 2.068-1.408 2.068-2.664 0-1.256-.85-2.352-2.068-2.664-.49-.125-.786-.625-.66-1.115.125-.49.625-.786 1.115-.66zM8.25 3.667c-1.519 0-2.75 1.23-2.75 2.75 0 1.518 1.231 2.75 2.75 2.75S11 7.935 11 6.417c0-1.52-1.231-2.75-2.75-2.75z" transform="translate(-1412 -17) translate(1135) translate(272 12) translate(5 5)"/>
                    </g>
                </g>
            </g>
        </g>
    </g>
</svg>
