<svg xmlns="http://www.w3.org/2000/svg" viewBox="0 0 56 56">
    <g>
        <path fill="#A8A8A8" d="M0 0H56V56H0z" transform="translate(-64 -1342) translate(64 1342)"/>
        <path fill="#FFF" fill-opacity=".88" d="M34.667 31.333c4.48 0 8.136 3.538 8.325 7.972l.008.362V43c0 .92-.746 1.667-1.667 1.667-.854 0-1.559-.644-1.655-1.473L39.667 43v-3.333c0-2.663-2.082-4.84-4.707-4.992l-.293-.008H21.333c-2.662 0-4.84 2.081-4.991 4.706l-.009.294V43c0 .92-.746 1.667-1.666 1.667-.855 0-1.56-.644-1.656-1.473L13 43v-3.333c0-4.482 3.537-8.137 7.972-8.326l.361-.008h13.334zm-6.667-20c4.602 0 8.333 3.731 8.333 8.334C36.333 24.269 32.603 28 28 28c-4.602 0-8.333-3.731-8.333-8.333 0-4.603 3.73-8.334 8.333-8.334zm0 3.334c-2.761 0-5 2.238-5 5 0 2.761 2.239 5 5 5s5-2.239 5-5c0-2.762-2.239-5-5-5z" transform="translate(-64 -1342) translate(64 1342)"/>
    </g>
</svg>
