<svg xmlns="http://www.w3.org/2000/svg" viewBox="0 0 12 12"><path fill="#000" fill-rule="evenodd" d="M11.774 10.5c.062 0 .12-.025.164-.07a.22.22 0 0 0 .062-.164c-.069-1.447-.495-2.678-1.268-3.66-.618-.785-1.455-1.409-2.49-1.855a9.331 9.331 0 0 0-2.406-.655 9.542 9.542 0 0 0-.862-.078V2.225a.225.225 0 0 0-.128-.203.23.23 0 0 0-.24.028L.084 5.692A.221.221 0 0 0 0 5.865c0 .068.03.132.082.175l4.523 3.737c.067.056.16.068.24.03a.222.222 0 0 0 .13-.202v-1.95c1.134-.08 2.178.003 3.107.25a6.39 6.39 0 0 1 2.087.96c1.018.724 1.398 1.5 1.401 1.507a.23.23 0 0 0 .204.128z" class="fill"/></svg>