<svg xmlns="http://www.w3.org/2000/svg" viewBox="0 0 64 64" style="height: 100%; width: 100%;">
    <g fill="none" fill-rule="evenodd">
        <g fill="#000">
            <g>
                <path class="fill" d="M41.636 3.226l.251.222c.961.961 1.035 2.474.222 3.52l-.222.251-7.219 7.218V27.38l11.209-6.472 2.643-9.86c.38-1.423 1.843-2.268 3.266-1.886 1.313.352 2.133 1.625 1.952 2.937l-.067.329-2.237 8.35 8.352 2.24c1.313.352 2.133 1.625 1.952 2.938l-.067.328c-.352 1.313-1.625 2.134-2.937 1.952l-.329-.066-9.861-2.643L37.334 32l11.209 6.47 9.862-2.64.329-.067c1.312-.182 2.585.639 2.937 1.952l.067.328c.181 1.313-.64 2.586-1.952 2.938l-8.353 2.237 2.238 8.353.067.329c.181 1.312-.64 2.585-1.952 2.937-1.423.382-2.885-.463-3.266-1.885l-2.643-9.861-11.209-6.472v12.944l7.219 7.218c1.041 1.041 1.041 2.73 0 3.771-.961.962-2.474 1.036-3.52.222l-.251-.222L32 54.437l-6.114 6.115c-.961.962-2.474 1.036-3.52.222l-.251-.222c-.962-.961-1.036-2.474-.222-3.52l.222-.251 7.218-7.22V36.62l-11.209 6.47-2.642 9.863c-.381 1.422-1.843 2.267-3.266 1.885-1.313-.352-2.133-1.625-1.952-2.937l.067-.329 2.236-8.351-8.35-2.24c-1.314-.35-2.134-1.624-1.953-2.937l.067-.328c.351-1.313 1.624-2.134 2.937-1.952l.329.066 9.861 2.642L26.667 32l-11.209-6.472-9.86 2.643-.329.066c-1.313.182-2.586-.639-2.937-1.952l-.067-.328c-.181-1.313.639-2.586 1.952-2.938l8.35-2.239-2.235-8.351-.067-.329c-.181-1.312.639-2.585 1.952-2.937 1.423-.382 2.885.463 3.266 1.885l2.642 9.862 11.209 6.47V14.439l-7.218-7.219c-1.042-1.041-1.042-2.73 0-3.771.961-.962 2.474-1.036 3.52-.222l.251.222 6.114 6.112 6.115-6.112c.961-.962 2.474-1.036 3.52-.222z" transform="translate(-642 -1071) translate(642 1071)"/>
            </g>
        </g>
    </g>
</svg>
