<svg xmlns="http://www.w3.org/2000/svg" viewBox="0 0 64 64"><path class="fill" d="m42.65 5.333.311.017a2.666 2.666 0 0 1 2.373 2.633l-.017.311-1.45 13.04h9.466a2.667 2.667 0 0 1 .311 5.315l-.31.018H43.271l-1.184 10.666h11.245a2.667 2.667 0 0 1 .312 5.316l-.31.018H41.495l-1.512 13.627a2.667 2.667 0 0 1-5.318-.277l.017-.311 1.448-13.04H25.496l-1.512 13.628a2.667 2.667 0 0 1-5.318-.277l.017-.311 1.448-13.04h-9.464a2.667 2.667 0 0 1-.311-5.315l.31-.018h10.057l1.186-10.667H10.667a2.667 2.667 0 0 1-.311-5.315l.31-.018h11.835l1.515-13.627a2.668 2.668 0 0 1 2.634-2.373l.311.017a2.666 2.666 0 0 1 2.373 2.633l-.017.311-1.45 13.04H38.5l1.515-13.628a2.668 2.668 0 0 1 2.634-2.373zm-5.927 32 1.186-10.667H27.272l-1.184 10.667h10.635z" fill="#000" fill-rule="evenodd"/></svg>