<svg xmlns="http://www.w3.org/2000/svg" viewBox="0 0 64 64"><path class="fill" d="M32 5.06a8 8 0 0 1 6.561 3.424l.287.439 22.608 37.744a8 8 0 0 1 .022 7.962 8.005 8.005 0 0 1-6.356 4.014l-.535.024H9.384a8.002 8.002 0 0 1-6.862-4.038 8.008 8.008 0 0 1-.226-7.493l.27-.506L25.16 8.91A8.001 8.001 0 0 1 32 5.06zm0 5.333c-.816 0-1.58.372-2.076.99l-.196.28-22.565 37.67a2.669 2.669 0 0 0 1.909 3.973l.341.027h45.144a2.67 2.67 0 0 0 2.45-3.659l-.148-.304L34.28 11.676A2.666 2.666 0 0 0 32 10.393zm0 32.274A2.667 2.667 0 1 1 32 48a2.667 2.667 0 0 1 0-5.333zm0-21.334a2.667 2.667 0 0 1 2.649 2.356l.018.311v10.667a2.667 2.667 0 0 1-5.316.311l-.018-.311V24A2.667 2.667 0 0 1 32 21.333z" fill="#000" fill-rule="evenodd"/></svg>