<svg xmlns="http://www.w3.org/2000/svg" viewBox="0 0 64 64" style="height: 100%; width: 100%;">
    <g fill="none" fill-rule="evenodd">
        <g fill="#000">
            <g>
                <path class="fill" d="M42.65 5.333l.311.017c1.36.15 2.366 1.298 2.373 2.633l-.017.311-1.45 13.04h9.466C54.806 21.333 56 22.526 56 24c0 1.368-1.03 2.495-2.356 2.649l-.31.018H43.271l-1.184 10.666h11.245C54.806 37.333 56 38.527 56 40c0 1.368-1.03 2.495-2.356 2.649l-.31.018H41.495l-1.512 13.627c-.163 1.464-1.481 2.519-2.945 2.356-1.36-.15-2.366-1.298-2.373-2.633l.017-.311 1.448-13.04H25.496l-1.512 13.628c-.163 1.464-1.481 2.519-2.945 2.356-1.36-.15-2.366-1.298-2.373-2.633l.017-.311 1.448-13.04h-9.464C9.194 42.667 8 41.474 8 40c0-1.368 1.03-2.495 2.356-2.649l.31-.018h10.057l1.186-10.667H10.667C9.194 26.667 8 25.474 8 24c0-1.368 1.03-2.495 2.356-2.649l.31-.018h11.835l1.515-13.627c.151-1.36 1.299-2.366 2.634-2.373l.311.017c1.36.15 2.366 1.298 2.373 2.633l-.017.311-1.45 13.04H38.5l1.515-13.628c.151-1.36 1.299-2.366 2.634-2.373zm-5.927 32l1.186-10.667H27.272l-1.184 10.667h10.635z" transform="translate(-66 -431) translate(66 431)"/>
            </g>
        </g>
    </g>
</svg>
