<svg xmlns="http://www.w3.org/2000/svg" viewBox="0 0 64 64"><path fill="#000" fill-rule="evenodd" d="M42.667 37.333c7.17 0 13.018 5.66 13.32 12.755l.013.579V56a2.667 2.667 0 0 1-5.315.311L50.667 56v-5.333c0-4.26-3.33-7.743-7.53-7.987l-.47-.013H21.333a8 8 0 0 0-7.986 7.53l-.014.47V56a2.667 2.667 0 0 1-5.316.311L8 56v-5.333c0-7.17 5.66-13.019 12.755-13.321l.578-.013h21.334zM32 5.333c7.364 0 13.333 5.97 13.333 13.334C45.333 26.03 39.363 32 32 32c-7.364 0-13.333-5.97-13.333-13.333 0-7.364 5.97-13.334 13.333-13.334zm0 5.334a8 8 0 1 0 0 16 8 8 0 0 0 0-16z" class="fill"/></svg>