<svg xmlns="http://www.w3.org/2000/svg" viewBox="0 0 64 64" style="height: 100%; width: 100%;">
    <g fill="none" fill-rule="evenodd">
        <g fill="#000">
            <g>
                <path class="fill" d="M34.667 5.333c1.472 0 2.666 1.194 2.666 2.667 0 1.473-1.194 2.667-2.666 2.667H13.333c-1.472 0-2.666 1.194-2.666 2.666v37.334c0 1.143.72 2.118 1.73 2.497l28.384-28.383c1.041-1.041 2.73-1.041 3.771 0l8.781 8.78v-4.228c0-1.416 1.104-2.574 2.498-2.661l.169-.005c1.473 0 2.667 1.194 2.667 2.666v21.334c0 4.418-3.582 8-8 8H13.33c-4.417-.001-7.998-3.583-7.998-8V13.333c0-4.418 3.582-8 8-8zm8 25.105L19.77 53.333h30.897c1.416 0 2.574-1.104 2.661-2.498l.005-.168v-9.563L42.667 30.438zM22.667 16c3.682 0 6.666 2.985 6.666 6.667s-2.984 6.666-6.666 6.666c-3.682 0-6.667-2.984-6.667-6.666C16 18.985 18.985 16 22.667 16zm0 5.333c-.737 0-1.334.597-1.334 1.334 0 .736.597 1.333 1.334 1.333.736 0 1.333-.597 1.333-1.333 0-.737-.597-1.334-1.333-1.334zM56.78 3.448c1.041-1.042 2.73-1.042 3.771 0 1.042 1.041 1.042 2.73 0 3.771l-4.782 4.78 4.782 4.782c.998.998 1.04 2.59.125 3.638l-.125.133c-1.041 1.042-2.73 1.042-3.771 0l-4.782-4.781-4.78 4.781c-.998.998-2.59 1.04-3.638.125l-.133-.125c-1.042-1.041-1.042-2.73 0-3.771L48.228 12l-4.78-4.781c-.998-.998-1.04-2.59-.125-3.638l.125-.133c1.041-1.042 2.73-1.042 3.771 0l4.78 4.78z" transform="translate(-354 -591) translate(354 591)"/>
            </g>
        </g>
    </g>
</svg>
