<svg width="24" height="24" fill="none" xmlns="http://www.w3.org/2000/svg"><path fill-rule="evenodd" clip-rule="evenodd" d="M11.654 18.664v.001c-.405.523-1.182.524-1.58.037-.162-.2-.25-.444-.25-.69v-3.678a.938.938 0 0 0-.938-.938H5.4c-.359 0-.7-.179-.911-.488l-.001-.001-.369-.548-.003-.004a1.054 1.054 0 0 1-.134-.895l1.532-5.316c.131-.459.559-.782 1.044-.782h7.075c.3 0 .593.127.8.345l1.13 1.222v6.647l-3.91 5.088Zm4.73-3.078-3.245 4.223-.002.002c-1.125 1.456-3.339 1.521-4.517.075a2.975 2.975 0 0 1-.671-1.874v-2.74h-2.55c-.99 0-1.908-.496-2.462-1.31l-.002-.004-.368-.547-.002-.002a2.93 2.93 0 0 1-.382-2.475v-.003L3.711 5.63a2.963 2.963 0 0 1 2.847-2.142h7.075c.823 0 1.608.345 2.166.935l.007.007.066.072a2.129 2.129 0 0 1 1.821-1.025h2.115a2.13 2.13 0 0 1 2.13 2.13v8.3a2.13 2.13 0 0 1-2.13 2.13h-2.115a2.12 2.12 0 0 1-1.31-.45Zm3.678-1.68c0 .141-.114.255-.254.255h-2.115a.255.255 0 0 1-.255-.255v-8.3c0-.14.115-.255.255-.255h2.115c.14 0 .255.114.255.255v8.3Z" fill="#000"/></svg>