<svg xmlns="http://www.w3.org/2000/svg" viewBox="0 0 64 64"><path class="fill" d="M5.886 31.448 19.219 44.78a2.667 2.667 0 0 1-3.771 3.771L2.114 35.22a2.667 2.667 0 0 1 3.772-3.771zm52.228-16a2.666 2.666 0 1 1 3.772 3.771L32.552 48.552a2.665 2.665 0 0 1-3.771 0L15.448 35.22a2.665 2.665 0 0 1 0-3.771 2.665 2.665 0 0 1 3.771 0l11.448 11.447zm-9.562 0a2.665 2.665 0 0 1 0 3.771L32.556 35.215a2.665 2.665 0 0 1-3.771 0 2.664 2.664 0 0 1 0-3.77L44.78 15.447a2.665 2.665 0 0 1 3.771 0z" fill="#000" fill-rule="evenodd"/></svg>