<svg xmlns="http://www.w3.org/2000/svg" viewBox="0 0 64 64"><path class="fill" d="M32.097 3.22c2.65 0 5.255.357 7.763 1.054a2.134 2.134 0 0 1-1.144 4.111 24.669 24.669 0 0 0-6.619-.899c-13.603 0-24.63 11.027-24.63 24.63s11.027 24.63 24.63 24.63 24.63-11.027 24.63-24.63c0-2.227-.295-4.413-.87-6.518a2.13 2.13 0 0 1 1.494-2.62 2.13 2.13 0 0 1 2.62 1.494 28.895 28.895 0 0 1 1.023 7.644c0 15.96-12.938 28.897-28.897 28.897-15.96 0-28.897-12.937-28.897-28.897C3.2 16.157 16.138 3.22 32.097 3.22zm10.705 34.792a2.133 2.133 0 0 1 2.024 2.808c-1.873 5.623-6.937 9.488-12.729 9.488-5.792 0-10.856-3.865-12.73-9.488a2.134 2.134 0 0 1 1.875-2.803l.15-.005h21.41zm-3.477 4.266H24.867l.294.382c1.539 1.887 3.718 3.113 6.115 3.342l.314.024.507.015c2.617 0 5.037-1.188 6.743-3.151l.193-.23.292-.382zM21.392 21.954c1.087 0 1.985.814 2.116 1.866l.017.267v5.353a2.133 2.133 0 0 1-4.25.268l-.017-.268v-5.353c0-1.178.955-2.133 2.134-2.133zm21.41 0c1.088 0 1.985.814 2.117 1.866l.017.267v5.353a2.133 2.133 0 0 1-4.25.268l-.017-.268v-5.353c0-1.178.955-2.133 2.133-2.133zM54.853 0a.8.8 0 0 1 .8.8v7.786h7.76a.8.8 0 0 1 .8.8v2.667a.8.8 0 0 1-.8.8h-7.76v7.758a.8.8 0 0 1-.8.8h-2.666a.8.8 0 0 1-.8-.8v-7.758h-7.785a.8.8 0 0 1-.8-.8V9.387a.8.8 0 0 1 .8-.8l7.784-.001V.8a.8.8 0 0 1 .8-.8h2.667z" fill="#000" fill-rule="evenodd"/></svg>