<svg xmlns="http://www.w3.org/2000/svg" viewBox="0 0 64 64"><path class="fill" d="m55.334 28.926-24.506 23.34c-5.222 4.973-13.74 4.973-18.962 0-5.149-4.903-5.149-12.797 0-17.7l24.506-23.34c3.138-2.988 8.278-2.988 11.416 0 3.064 2.919 3.064 7.594 0 10.513L23.255 45.077c-1.055 1.005-2.815 1.005-3.87.001-.98-.933-.98-2.39 0-3.325l22.64-21.535a2.667 2.667 0 0 0-3.676-3.864L15.709 37.89a7.578 7.578 0 0 0-.001 11.05c3.113 2.966 8.11 2.966 11.224 0l24.533-23.338c5.272-5.021 5.272-13.217 0-18.238-5.197-4.95-13.573-4.95-18.77 0L8.187 30.704c-7.356 7.005-7.356 18.419 0 25.424 7.281 6.935 19.036 6.935 26.318 0l24.506-23.34a2.666 2.666 0 1 0-3.678-3.862z" fill="#000" fill-rule="evenodd"/></svg>
