<svg xmlns="http://www.w3.org/2000/svg" viewBox="0 0 64 64">
    <g fill="none" fill-rule="evenodd">
        <g fill="#000">
            <g>
                <path class="fill" d="M36.889 43.013c6.608 0 12.121 4.685 12.43 10.734l.014.537V58c0 1.472-1.194 2.666-2.666 2.666-1.368 0-2.495-1.03-2.65-2.355L44 58v-3.716c0-3.07-2.87-5.718-6.636-5.925l-.475-.013H27.11c-3.838 0-6.86 2.525-7.096 5.557l-.015.381V58c0 1.472-1.194 2.666-2.667 2.666-1.367 0-2.494-1.03-2.648-2.355L14.667 58v-3.716c0-6.126 5.324-10.986 11.864-11.26l.58-.011h9.778zm18.578-17.291c.266 0 .53.04.784.118 4.632 1.426 7.518 4.801 7.736 9.688l.013.594v12.8c0 1.472-1.194 2.666-2.667 2.666-1.367 0-2.494-1.03-2.648-2.355l-.018-.311V36.124c-.002-2.595-1.163-4.171-3.528-5.034l-.104-.037-2.502.002c-1.367 0-2.494-1.03-2.648-2.356l-.018-.31c0-1.368 1.03-2.495 2.355-2.65l.311-.017h2.934zm-44 0l.31.018c1.327.154 2.356 1.28 2.356 2.648l-.018.311c-.154 1.327-1.28 2.356-2.648 2.356l-2.51-.002-.119.042c-2.246.85-3.503 2.574-3.505 5.147v12.68l-.018.31c-.154 1.327-1.28 2.356-2.648 2.356C1.194 51.588 0 50.394 0 48.922V36.24l.014-.591c.225-4.874 3.203-8.415 7.712-9.809.255-.078.52-.118.788-.118h2.953zM32 19.958c5.512 0 10 4.409 10 9.871 0 5.463-4.488 9.872-10 9.872s-10-4.41-10-9.872 4.488-9.871 10-9.871zm0 5.333c-2.588 0-4.667 2.043-4.667 4.538 0 2.496 2.08 4.538 4.667 4.538 2.588 0 4.667-2.042 4.667-4.538 0-2.495-2.08-4.538-4.667-4.538zM17.333 2.667c5.513 0 10 4.409 10 9.871 0 5.462-4.487 9.871-10 9.871-5.512 0-10-4.409-10-9.871 0-5.462 4.488-9.871 10-9.871zm29.334 0c5.512 0 10 4.409 10 9.871 0 5.462-4.488 9.871-10 9.871-5.513 0-10-4.409-10-9.871 0-5.462 4.487-9.871 10-9.871zM17.333 8c-2.587 0-4.666 2.042-4.666 4.538 0 2.496 2.079 4.538 4.666 4.538 2.588 0 4.667-2.042 4.667-4.538C22 10.042 19.921 8 17.333 8zm29.334 0C44.079 8 42 10.042 42 12.538c0 2.496 2.079 4.538 4.667 4.538 2.587 0 4.666-2.042 4.666-4.538 0-2.496-2.079-4.538-4.666-4.538z" transform="translate(-930 -431) translate(930 431)"/>
            </g>
        </g>
    </g>
</svg>
