<svg xmlns="http://www.w3.org/2000/svg" viewBox="0 0 64 64"><path fill="#000" fill-rule="evenodd" d="M32 2.667C48.2 2.667 61.333 15.8 61.333 32S48.2 61.333 32 61.333 2.667 48.2 2.667 32 15.8 2.667 32 2.667zm9.886 19.447a2.668 2.668 0 0 0-3.772 0L32 28.23l-6.114-6.115-.134-.124a2.667 2.667 0 0 0-3.638.124l-.124.134a2.667 2.667 0 0 0 .124 3.638L28.23 32l-6.115 6.114-.124.134a2.667 2.667 0 0 0 .124 3.638l.134.124a2.667 2.667 0 0 0 3.638-.124L32 35.77l6.114 6.115.134.124a2.667 2.667 0 0 0 3.638-.124l.124-.134a2.667 2.667 0 0 0-.124-3.638L35.77 32l6.115-6.114.124-.134a2.667 2.667 0 0 0-.124-3.638z" class="fill"/></svg>