<svg xmlns="http://www.w3.org/2000/svg" viewBox="0 0 64 64" style="height: 100%; width: 100%;">
    <g fill="none" fill-rule="evenodd">
        <g fill="#000">
            <g>
                <path class="fill" d="M55.62 19.616l.067.123c1.904 3.671 2.98 7.84 2.98 12.261 0 4.326-1.03 8.41-2.864 12.025-1.012 2.726-1.235 4.847-.67 6.363.71 1.903 1.598 3.49 2.662 4.758 1.54 1.586 1.039 2.696-1.506 3.33-2.09.521-5.716-.027-10.879-1.646l-.488-.155-1.594-.527C39.89 57.764 36.05 58.667 32 58.667c-4.447 0-8.64-1.089-12.326-3.014l-.059-.03 4-4c2.62 1.122 5.456 1.71 8.385 1.71 2.993 0 5.89-.614 8.562-1.786l.498-.226 1.925-.905 3.613 1.196.695.219c.728.225 1.414.423 2.054.595l.472.125.485.121-.167-.42-.2-.594c-.814-2.685-.484-5.681.713-9.065l.154-.425.106-.284.528-1.084c1.243-2.733 1.895-5.714 1.895-8.8 0-2.929-.588-5.765-1.71-8.385l3.997-3.999zm2.266-13.502c.96.962 1.035 2.474.221 3.52l-.221.252-48 48c-1.042 1.041-2.73 1.041-3.772 0-.96-.962-1.035-2.474-.221-3.52l.221-.252 5.238-5.237c-3.67-4.486-5.908-10.19-6.015-16.412L5.333 32C5.333 17.272 17.273 5.333 32 5.333c6.404 0 12.28 2.257 16.877 6.02l5.237-5.239c1.042-1.041 2.73-1.041 3.772 0zM32 10.667c-11.782 0-21.333 9.55-21.333 21.333 0 4.836 1.614 9.401 4.48 13.084l29.936-29.938c-3.683-2.865-8.248-4.48-13.083-4.48z" transform="translate(-354 -1071) translate(354 1071)"/>
            </g>
        </g>
    </g>
</svg>
