<svg xmlns="http://www.w3.org/2000/svg" viewBox="0 0 64 64"><path fill="#000" fill-rule="evenodd" d="M32 61.333C15.8 61.333 2.667 48.2 2.667 32S15.8 2.667 32 2.667 61.333 15.8 61.333 32 48.2 61.333 32 61.333zM32 56c13.255 0 24-10.745 24-24S45.255 8 32 8 8 18.745 8 32s10.745 24 24 24zm2.213-18.63a2.667 2.667 0 1 1-5.333 0v-2.69c0-1.148.734-2.168 1.823-2.53.173-.058.532-.195 1.01-.407.809-.36 1.616-.79 2.354-1.282 1.835-1.223 2.813-2.528 2.813-3.786a5.333 5.333 0 0 0-10.364-1.777 2.667 2.667 0 0 1-5.032-1.77 10.668 10.668 0 0 1 20.729 3.551c0 3.413-2.022 6.109-5.187 8.22a21.268 21.268 0 0 1-2.813 1.578v.893zm-5.333 7.523a2.667 2.667 0 1 1 5.333 0v.44a2.667 2.667 0 1 1-5.333 0v-.44z" class="fill"/></svg>