<svg xmlns="http://www.w3.org/2000/svg" viewBox="0 0 64 64"><path class="fill" d="M37.333 2.667c4.26 0 7.743 3.33 7.987 7.53l.013.47v2.666H56a2.667 2.667 0 0 1 .311 5.316l-.311.018h-2.668l.001 34.666c0 4.26-3.33 7.743-7.53 7.987l-.47.013H18.667a8.001 8.001 0 0 1-7.987-7.53l-.013-.47V18.667H8a2.667 2.667 0 0 1-.311-5.316L8 13.333h10.666v-2.666a8.002 8.002 0 0 1 7.53-7.987l.47-.013h10.667zm10.666 16H16v34.666a2.67 2.67 0 0 0 2.356 2.65l.31.017h26.667a2.67 2.67 0 0 0 2.65-2.356l.017-.31V18.666zm-21.332 8a2.667 2.667 0 0 1 2.648 2.355l.018.311v16a2.667 2.667 0 0 1-5.316.311l-.017-.31v-16a2.667 2.667 0 0 1 2.667-2.667zm10.666 0a2.67 2.67 0 0 1 2.65 2.355l.017.311v16a2.667 2.667 0 0 1-5.315.311l-.018-.31v-16a2.667 2.667 0 0 1 2.666-2.667zm0-18.667H26.667a2.67 2.67 0 0 0-2.65 2.356l-.017.31v2.667h16v-2.666a2.67 2.67 0 0 0-2.356-2.65L37.334 8z" fill="#000" fill-rule="evenodd"/></svg>