<svg viewBox="0 0 64 64" fill="none" xmlns="http://www.w3.org/2000/svg"><g clip-path="url(#a)"><path class="fill" clip-rule="evenodd" d="M32 0C26.11 0 21.333 4.776 21.333 10.667V32c0 5.891 4.776 10.667 10.667 10.667S42.667 37.89 42.667 32V10.667C42.667 4.776 37.89 0 32 0Zm-5.333 10.667a5.333 5.333 0 0 1 10.666 0V32a5.333 5.333 0 0 1-10.666 0V10.667Z"/><path class="fill" d="M16 26.667a2.667 2.667 0 1 0-5.333 0V32c0 10.879 8.143 19.856 18.666 21.168v5.499h-8a2.667 2.667 0 0 0 0 5.333h21.334a2.667 2.667 0 1 0 0-5.333h-8v-5.499C45.19 51.856 53.333 42.88 53.333 32v-5.333a2.667 2.667 0 1 0-5.333 0V32c0 8.837-7.163 16-16 16s-16-7.163-16-16v-5.333Z"/></g><defs><clipPath id="a"><path fill="#fff" d="M0 0h64v64H0z"/></clipPath></defs></svg>
