<svg xmlns="http://www.w3.org/2000/svg" fill="none" viewBox="0 0 64 64"><path fill="#000" d="M38.824 25.895a2.95 2.95 0 0 1 4.16-.074L57.1 39.378a2.921 2.921 0 0 1 .002 4.213L42.985 57.177a2.95 2.95 0 0 1-4.158-.07 2.919 2.919 0 0 1 .07-4.14l11.928-11.48-11.926-11.451a2.919 2.919 0 0 1-.075-4.14Z" class="fill" clip-rule="evenodd"/><path fill="#000" d="M8.866 6c1.583 0 2.866 1.216 2.866 2.716V25.5c0 7.672 6.846 14.068 15.475 14.068h22.927c1.583 0 2.866 1.216 2.866 2.716 0 1.5-1.283 2.716-2.866 2.716H27.207C15.604 45 6 36.35 6 25.5V8.716C6 7.216 7.283 6 8.866 6Z" class="fill" clip-rule="evenodd"/></svg>
