<svg xmlns="http://www.w3.org/2000/svg" viewBox="0 0 64 64">
    <g fill="none" fill-rule="evenodd">
        <g fill="#000">
            <g>
                <path class="fill" d="M50.667 5.333c4.418 0 8 3.582 8 8v37.334c0 4.418-3.582 8-8 8H13.333c-4.418 0-8-3.582-8-8V13.333c0-4.418 3.582-8 8-8zm0 5.334H13.333c-1.472 0-2.666 1.194-2.666 2.666v37.334c0 1.472 1.194 2.666 2.666 2.666h37.334c1.472 0 2.666-1.194 2.666-2.666V13.333c0-1.472-1.194-2.666-2.666-2.666zm-18.667 8c1.368 0 2.495 1.03 2.649 2.355l.018.311v8h8c1.472 0 2.666 1.194 2.666 2.667 0 1.368-1.03 2.495-2.355 2.649l-.311.018h-8v8c0 1.472-1.194 2.666-2.667 2.666-1.368 0-2.495-1.03-2.649-2.355l-.018-.311v-8h-8c-1.472 0-2.666-1.194-2.666-2.667 0-1.368 1.03-2.495 2.355-2.649l.311-.018h8v-8c0-1.472 1.194-2.666 2.667-2.666z" transform="translate(-66 -271) translate(66 271)"/>
            </g>
        </g>
    </g>
</svg>
