<svg xmlns="http://www.w3.org/2000/svg" viewBox="0 0 64 64"><path class="fill" d="M37.333 2.667a3.305 3.305 0 0 1 .274.014l.085.01.058.008c.047.007.094.016.141.026l.029.007c.05.01.098.023.146.037l.034.01c.237.07.46.173.663.303l.034.022c.036.023.07.047.104.072l.057.043a2.646 2.646 0 0 1 .261.228l-.126-.117c.05.043.097.088.143.135L55.21 19.438c.047.046.091.094.134.143l.035.04c.026.032.052.063.076.096l.04.054.07.1.024.038c.16.253.279.535.347.836l.01.048c.009.043.017.086.024.13l.006.048.007.051.004.041c.01.09.014.18.014.27v32a8 8 0 0 1-8 8H16a8 8 0 0 1-8-8V10.667a8 8 0 0 1 8-8h21.333zM34.666 8H16a2.667 2.667 0 0 0-2.667 2.667v42.666A2.667 2.667 0 0 0 16 56h32a2.667 2.667 0 0 0 2.667-2.667L50.666 24H37.333a2.667 2.667 0 0 1-2.648-2.356l-.018-.31L34.666 8zm12.227 10.667-6.894-6.894.001 6.894h6.893z" fill="#000" fill-rule="evenodd"/></svg>