<svg xmlns="http://www.w3.org/2000/svg" viewBox="0 0 64 64"><path fill="#000" fill-rule="evenodd" d="M50.667 5.333a8 8 0 0 1 8 8v37.334a8 8 0 0 1-8 8H13.333a8 8 0 0 1-8-8V13.333a8 8 0 0 1 8-8zm-8 25.107L19.77 53.332l30.896.001a2.667 2.667 0 0 0 2.661-2.498l.005-.168v-9.564L42.666 30.44zm8-19.773H13.333a2.667 2.667 0 0 0-2.666 2.666v37.334c0 1.143.72 2.119 1.731 2.498L40.781 24.78a2.668 2.668 0 0 1 3.52-.222l.251.222 8.78 8.78.001-20.228a2.667 2.667 0 0 0-2.498-2.661l-.168-.005zm-28 5.333a6.666 6.666 0 1 1 0 13.333 6.666 6.666 0 0 1 0-13.333zm0 5.333a1.334 1.334 0 1 0 0 2.667 1.334 1.334 0 0 0 0-2.667z" class="fill"/></svg>