<svg xmlns="http://www.w3.org/2000/svg" viewBox="0 0 64 64" style="height: 100%; width: 100%;">
    <g fill="none" fill-rule="evenodd">
        <g fill="#000">
            <g>
                <path class="fill" d="M16.664 45.333c2.155 0 4.119-.318 5.89-.953 1.772-.636 3.143-1.53 4.113-2.683V31.34h-10.29v3.94h4.902v4.474c-.861.856-2.304 1.283-4.327 1.283-2.011 0-3.538-.695-4.58-2.085-1.04-1.39-1.562-3.446-1.562-6.168v-1.657c.012-2.698.497-4.73 1.455-6.097.958-1.366 2.352-2.05 4.184-2.05 1.437 0 2.565.345 3.385 1.034.82.69 1.35 1.777 1.59 3.262h5.243c-.324-2.804-1.36-4.94-3.107-6.408-1.748-1.468-4.172-2.201-7.273-2.201-2.226 0-4.169.502-5.827 1.506-1.658 1.004-2.927 2.454-3.807 4.35-.88 1.895-1.32 4.138-1.32 6.728v1.765c.024 2.52.5 4.712 1.428 6.578.928 1.865 2.245 3.288 3.95 4.269 1.707.98 3.69 1.47 5.953 1.47zm20.67 0V18.667H32v26.666h5.333zm10.396 0V34.436h9.721v-4.432H47.73v-6.887h10.937v-4.45h-16v26.666h5.063z" transform="translate(-1220 -591) translate(1220 591)"/>
            </g>
        </g>
    </g>
</svg>
