<svg xmlns="http://www.w3.org/2000/svg" viewBox="0 0 64 64"><path fill="#000" fill-rule="evenodd" d="M18.667 34.667a2.667 2.667 0 0 1 .311 5.316l-.311.017h-5.334v16a2.667 2.667 0 0 1-5.316.311L8 56V40H2.667a2.667 2.667 0 0 1-.311-5.315l.31-.018h16zM32 29.333a2.667 2.667 0 0 1 2.649 2.356l.018.311v24a2.667 2.667 0 0 1-5.316.311L29.333 56V32A2.667 2.667 0 0 1 32 29.333zM61.333 40a2.667 2.667 0 0 1 .311 5.315l-.31.018h-5.335L56 56a2.667 2.667 0 0 1-5.315.311L50.667 56l-.001-10.668-5.333.001a2.667 2.667 0 0 1-.311-5.316l.311-.017h16zm-8-34.667a2.67 2.67 0 0 1 2.65 2.356L56 8v24a2.667 2.667 0 0 1-5.315.311L50.667 32V8a2.667 2.667 0 0 1 2.666-2.667zm-42.666 0a2.667 2.667 0 0 1 2.648 2.356l.018.311v18.667a2.667 2.667 0 0 1-5.316.311L8 26.667V8a2.667 2.667 0 0 1 2.667-2.667zm21.333 0a2.667 2.667 0 0 1 2.649 2.356l.018.311-.001 10.666H40a2.668 2.668 0 0 1 .311 5.317L40 24H24a2.667 2.667 0 0 1-.311-5.315l.311-.018h5.333V8A2.667 2.667 0 0 1 32 5.333z" class="fill"/></svg>