<svg width="24" height="24" fill="none" xmlns="http://www.w3.org/2000/svg"><path fill-rule="evenodd" clip-rule="evenodd" d="M12.346 5.336v-.001c.405-.523 1.182-.524 1.58-.037.162.2.25.443.25.69v3.678c0 .518.42.938.938.938H18.6c.359 0 .7.179.911.488l.001.001.369.548.003.004c.174.256.226.583.134.895l-1.532 5.316c-.131.459-.559.782-1.044.782h-7.075c-.3 0-.593-.127-.8-.345l-1.13-1.222v-6.647l3.91-5.088Zm-4.73 3.078 3.245-4.223.002-.002c1.125-1.456 3.339-1.522 4.517-.075.421.52.671 1.177.671 1.874v2.74h2.55c.99 0 1.908.496 2.462 1.31l.002.004.368.547.002.002a2.93 2.93 0 0 1 .382 2.475v.003l-1.528 5.302a2.963 2.963 0 0 1-2.847 2.142h-7.075a2.988 2.988 0 0 1-2.166-.935l-.007-.007-.066-.072a2.128 2.128 0 0 1-1.821 1.025H4.192a2.13 2.13 0 0 1-2.13-2.13v-8.3a2.13 2.13 0 0 1 2.13-2.13h2.115c.493 0 .948.168 1.31.45Zm-3.678 1.68c0-.141.114-.255.254-.255h2.115c.14 0 .254.114.254.255v8.3c0 .14-.114.255-.254.255H4.192a.255.255 0 0 1-.255-.255v-8.3Z" fill="#000"/></svg>