<svg xmlns="http://www.w3.org/2000/svg" viewBox="0 0 64 64"><path class="fill" d="m54.534 6.069-.248.217-9.736 9.735-.04.04-9.573 9.573c-.15.118-.286.254-.405.404L6.286 54.286a2.423 2.423 0 0 0 3.18 3.645l.248-.217 13.374-13.373a2.419 2.419 0 0 0 1.88-.401 12.119 12.119 0 0 1 14.04 0 2.424 2.424 0 1 0 2.808-3.952 16.951 16.951 0 0 0-11.303-3.072l6.743-6.744a24.105 24.105 0 0 1 10.159 5.021 2.424 2.424 0 0 0 3.11-3.719 28.945 28.945 0 0 0-9.34-5.23l5.633-5.634a36.153 36.153 0 0 1 9.225 5.934 2.425 2.425 0 0 0 3.211-3.633 40.972 40.972 0 0 0-8.796-5.941l7.256-7.256a2.423 2.423 0 0 0-3.18-3.645zm-35.04 21.474a28.936 28.936 0 0 0-6.032 3.942 2.424 2.424 0 0 0 3.137 3.697 24.018 24.018 0 0 1 5.022-3.282 2.425 2.425 0 0 0-2.127-4.357zM4.748 22.909a2.424 2.424 0 0 0 3.207 3.636 36.363 36.363 0 0 1 26.978-8.977 2.424 2.424 0 0 0 .389-4.832A41.204 41.204 0 0 0 4.748 22.909z" fill="#000" fill-rule="evenodd"/></svg>