<svg xmlns="http://www.w3.org/2000/svg" viewBox="0 0 64 64" style="height: 100%; width: 100%;">
    <g fill="none" fill-rule="evenodd">
        <g fill="#000">
            <g>
                <path class="fill" d="M46.14 14.43l.562.537 6.631 6.167v-7.8c0-1.368 1.03-2.495 2.356-2.65l.311-.017c1.368 0 2.495 1.03 2.649 2.355l.018.311v16c0 1.368-1.03 2.495-2.356 2.65L56 32H40c-1.473 0-2.667-1.194-2.667-2.667 0-1.367 1.03-2.494 2.356-2.648l.311-.018h11.452l-8.44-7.85c-5.964-5.893-15.168-7.182-22.563-3.156-7.38 4.018-11.172 12.357-9.314 20.455 1.859 8.107 8.935 14.032 17.362 14.518 8.43.487 16.162-4.585 18.967-12.426.496-1.387 2.023-2.108 3.41-1.612 1.386.496 2.108 2.022 1.612 3.409C48.88 50.082 38.973 56.582 28.19 55.959c-10.785-.623-19.862-8.222-22.254-18.65C3.542 26.872 8.426 16.135 17.9 10.977c9.227-5.024 20.65-3.579 28.241 3.453z" transform="translate(-930 -751) translate(930 751)"/>
            </g>
        </g>
    </g>
</svg>
