<svg xmlns="http://www.w3.org/2000/svg" viewBox="0 0 64 64">
    <g fill="none" fill-rule="evenodd">
        <g fill="#000">
            <g>
                <path class="fill" d="M37.333 2.667c.059 0 .117.002.174.005.033.002.067.005.1.009l.085.01.058.008c.047.007.094.016.141.026l.029.007c.05.01.098.023.146.037l.034.01c.237.07.46.173.663.303l.034.022c.036.023.07.047.104.072l.057.043c.03.022.058.045.085.068.06.05.12.104.176.16l-.126-.117c.05.043.097.088.143.135L55.21 19.438c.047.046.091.094.134.143l.035.04c.026.032.052.063.076.096l.04.054.07.1.024.038c.16.253.279.535.347.836l.01.048c.009.043.017.086.024.13l.006.048.007.051.004.041c.01.09.014.18.014.27v32c0 4.419-3.582 8-8 8H16c-4.418 0-8-3.581-8-8V10.667c0-4.419 3.582-8 8-8h21.333zM34.666 8H16c-1.473 0-2.667 1.194-2.667 2.667v42.666C13.333 54.806 14.527 56 16 56h32c1.473 0 2.667-1.194 2.667-2.667L50.666 24H37.333c-1.367 0-2.494-1.03-2.648-2.356l-.018-.31L34.666 8zm12.227 10.667l-6.894-6.894.001 6.894h6.893z" transform="translate(-498 -591) translate(498 591)"/>
            </g>
        </g>
    </g>
</svg>
