<svg xmlns="http://www.w3.org/2000/svg" viewBox="0 0 64 64"><path fill="#000" fill-rule="evenodd" d="M32 2.667A5.332 5.332 0 0 1 37.333 8v.24A4.4 4.4 0 0 0 40 12.267a4.4 4.4 0 0 0 4.853-.88l.16-.16a5.332 5.332 0 0 1 7.547 0 5.333 5.333 0 0 1 0 7.546l-.16.16a4.401 4.401 0 0 0-.88 4.854V24a4.4 4.4 0 0 0 4.027 2.667H56c2.946 0 5.333 2.387 5.333 5.333S58.946 37.333 56 37.333h-.24A4.4 4.4 0 0 0 51.733 40a4.4 4.4 0 0 0 .88 4.853l.16.16a5.332 5.332 0 0 1 0 7.547 5.333 5.333 0 0 1-7.546 0l-.16-.16a4.401 4.401 0 0 0-4.854-.88 4.397 4.397 0 0 0-2.666 4.027V56a5.333 5.333 0 0 1-10.667 0v-.24A4.4 4.4 0 0 0 24 51.733a4.4 4.4 0 0 0-4.853.88l-.16.16a5.332 5.332 0 0 1-7.547 0 5.333 5.333 0 0 1 0-7.546l.16-.16a4.401 4.401 0 0 0 .88-4.854 4.397 4.397 0 0 0-4.027-2.666H8A5.333 5.333 0 0 1 8 26.88h.24A4.4 4.4 0 0 0 12.267 24a4.4 4.4 0 0 0-.88-4.853l-.16-.16a5.332 5.332 0 0 1 0-7.547 5.333 5.333 0 0 1 7.546 0l.16.16a4.401 4.401 0 0 0 4.854.88H24a4.4 4.4 0 0 0 2.667-4.027V8A5.332 5.332 0 0 1 32 2.667zM32 24a8 8 0 1 0 0 16 8 8 0 0 0 0-16z" class="fill"/></svg>