<svg xmlns="http://www.w3.org/2000/svg" viewBox="0 0 64 64">
    <g fill="none" fill-rule="evenodd">
        <g fill="#000">
            <g>
                <path class="fill" d="M50.667 5.333c4.418 0 8 3.582 8 8v37.334c0 4.418-3.582 8-8 8H13.333c-4.418 0-8-3.582-8-8V13.333c0-4.418 3.582-8 8-8zm-8 25.107L19.77 53.332l30.896.001c1.416 0 2.574-1.104 2.661-2.498l.005-.168v-9.564L42.666 30.44zm8-19.773H13.333c-1.472 0-2.666 1.194-2.666 2.666v37.334c0 1.143.72 2.119 1.731 2.498L40.781 24.78c.961-.961 2.474-1.035 3.52-.222l.251.222 8.78 8.78.001-20.228c0-1.416-1.104-2.574-2.498-2.661l-.168-.005zm-28 5.333c3.682 0 6.666 2.985 6.666 6.667s-2.984 6.666-6.666 6.666c-3.682 0-6.667-2.984-6.667-6.666C16 18.985 18.985 16 22.667 16zm0 5.333c-.737 0-1.334.597-1.334 1.334 0 .736.597 1.333 1.334 1.333.736 0 1.333-.597 1.333-1.333 0-.737-.597-1.334-1.333-1.334z" transform="translate(-210 -591) translate(210 591)"/>
            </g>
        </g>
    </g>
</svg>
