<svg xmlns="http://www.w3.org/2000/svg" viewBox="0 0 64 64" style="height: 100%; width: 100%;">
    <g fill="none" fill-rule="evenodd">
        <g fill="#000">
            <g>
                <path class="fill" d="M39.414 6.4c.648 0 1.267.254 1.71.701l12.642 12.75c.407.41.634.953.634 1.516v29.765c0 3.542-4.342 6.468-8 6.468H16.16c-3.658 0-6.4-2.926-6.4-6.468L9.6 12.868c0-3.542 2.902-6.468 6.56-6.468zm3.331 35.173l-21.49.027-.147.005c-1.066.08-1.908 1.014-1.908 2.155 0 1.193.92 2.16 2.055 2.16l21.49-.027.147-.005c1.066-.08 1.908-1.014 1.908-2.155 0-1.193-.92-2.16-2.055-2.16zm0-8.533l-21.49.027-.147.005c-1.066.08-1.908 1.014-1.908 2.155 0 1.193.92 2.16 2.055 2.16l21.49-.027.147-.005c1.066-.08 1.908-1.014 1.908-2.155 0-1.193-.92-2.16-2.055-2.16zm-11.807-8.507h-9.6l-.153.006c-1.11.079-1.985 1.013-1.985 2.154 0 1.193.957 2.16 2.138 2.16h9.6l.152-.005c1.11-.08 1.985-1.014 1.985-2.155 0-1.193-.957-2.16-2.137-2.16z" transform="translate(-930 -591) translate(930 591)"/>
            </g>
        </g>
    </g>
</svg>
