<svg xmlns="http://www.w3.org/2000/svg" viewBox="0 0 64 64"><path fill="#000" fill-rule="evenodd" d="M34.667 5.333a2.667 2.667 0 0 1 0 5.334H13.333a2.667 2.667 0 0 0-2.666 2.666v37.334c0 1.143.72 2.118 1.73 2.497l28.384-28.383a2.667 2.667 0 0 1 3.771 0l8.781 8.78v-4.228a2.667 2.667 0 0 1 2.498-2.661l.169-.005a2.667 2.667 0 0 1 2.667 2.666v21.334a8 8 0 0 1-8 8H13.33a8 8 0 0 1-7.998-8V13.333a8 8 0 0 1 8-8zm8 25.105L19.77 53.333h30.897a2.667 2.667 0 0 0 2.661-2.498l.005-.168v-9.563L42.667 30.438zM22.667 16a6.666 6.666 0 1 1 0 13.333 6.666 6.666 0 0 1 0-13.333zm0 5.333a1.334 1.334 0 1 0 0 2.667 1.334 1.334 0 0 0 0-2.667zM56.78 3.448a2.665 2.665 0 0 1 3.771 0 2.665 2.665 0 0 1 0 3.771l-4.782 4.78 4.782 4.782c.998.998 1.04 2.59.125 3.638l-.125.133a2.665 2.665 0 0 1-3.771 0l-4.782-4.781-4.78 4.781a2.667 2.667 0 0 1-3.638.125l-.133-.125a2.665 2.665 0 0 1 0-3.771L48.228 12l-4.78-4.781a2.667 2.667 0 0 1-.125-3.638l.125-.133a2.665 2.665 0 0 1 3.771 0l4.78 4.78z" class="fill"/></svg>