<svg xmlns="http://www.w3.org/2000/svg" viewBox="0 0 64 64">
    <g fill="none" fill-rule="evenodd">
        <g fill="#000">
            <g>
                <path class="fill" d="M53.333 21.333c4.419 0 8 3.582 8 8v24c0 4.419-3.581 8-8 8h-24c-4.418 0-8-3.581-8-8v-24c0-4.418 3.582-8 8-8zm0 5.334h-24c-1.472 0-2.666 1.194-2.666 2.666v24c0 1.473 1.194 2.667 2.666 2.667h24C54.806 56 56 54.806 56 53.333v-24c0-1.472-1.194-2.666-2.667-2.666zm-18.666-24c4.26 0 7.743 3.33 7.986 7.53l.014.47v2.666C42.667 14.806 41.473 16 40 16c-1.368 0-2.495-1.03-2.649-2.356l-.018-.31v-2.667c0-1.368-1.03-2.495-2.355-2.65L34.667 8h-24c-1.368 0-2.495 1.03-2.65 2.356l-.017.31v24c0 1.368 1.03 2.495 2.356 2.65l.31.017h2.667C14.806 37.333 16 38.527 16 40c0 1.368-1.03 2.495-2.356 2.649l-.31.018h-2.667c-4.26 0-7.743-3.33-7.987-7.53l-.013-.47v-24c0-4.26 3.33-7.743 7.53-7.987l.47-.013h24z" transform="translate(-354 -271) translate(354 271)"/>
            </g>
        </g>
    </g>
</svg>
