<svg xmlns="http://www.w3.org/2000/svg" viewBox="0 0 64 64"><path fill="#000" fill-rule="evenodd" d="M29.83 6.45a2.667 2.667 0 0 1 4.34 0l11.697 16.374L57 13.918c1.88-1.504 4.573.054 4.32 2.35l-.047.29-8 37.334A2.666 2.666 0 0 1 50.666 56H13.333a2.666 2.666 0 0 1-2.607-2.108l-8-37.333c-.525-2.452 2.315-4.207 4.273-2.641l11.132 8.906zM32 12.587l-11.163 15.63a2.667 2.667 0 0 1-3.836.532l-7.497-5.997 5.984 27.915h33.021l5.984-27.915L47 28.749a2.667 2.667 0 0 1-3.632-.281l-.204-.251L32 12.587zM32 32a5.333 5.333 0 1 1 0 10.668A5.333 5.333 0 0 1 32 32z" class="fill"/></svg>