<svg xmlns="http://www.w3.org/2000/svg" viewBox="0 0 64 64">
    <g fill="none" fill-rule="evenodd">
        <g fill="#000">
            <g>
                <path class="fill" d="M36.613 53.333c2.056 0 3.338 2.227 2.307 4.005-1.431 2.467-4.068 3.986-6.92 3.986-2.852 0-5.489-1.519-6.92-3.986-.98-1.689.129-3.783 2.004-3.988l.303-.017h9.226zM32 2.667c11.56 0 20.972 9.194 21.323 20.669l.01.664v13.333c0 2.812 2.176 5.115 4.936 5.319l.753.033c2.963.318 3.077 4.616.342 5.24l-.342.056-.355.019H5.333l-.355-.019c-3.082-.33-3.082-4.965 0-5.296l.753-.033c2.622-.193 4.717-2.282 4.92-4.9l.016-.419V24c0-11.782 9.55-21.333 21.333-21.333zM32 8c-8.636 0-15.674 6.842-15.989 15.4L16 24v13.333c0 1.562-.336 3.046-.939 4.383l-.275.564-.218.387h34.861l-.215-.387c-.598-1.14-.996-2.403-1.146-3.74l-.055-.674-.013-.533V24c0-8.837-7.163-16-16-16z" transform="translate(-351 -1215) translate(351 1215)"/>
            </g>
        </g>
    </g>
</svg>
