<svg xmlns="http://www.w3.org/2000/svg" viewBox="0 0 64 64" style="height: 100%; width: 100%;">
    <g fill="none" fill-rule="evenodd">
        <g fill="#000">
            <g>
                <path class="fill" d="M9.466 6.069l.248.217 9.736 9.735.04.04 9.573 9.573c.15.118.286.254.405.404l28.246 28.248c.947.947.947 2.481 0 3.428-.868.868-2.23.94-3.18.217l-.248-.217-13.374-13.373c-.632.126-1.313.002-1.88-.401-4.203-2.987-9.836-2.987-14.04 0-1.092.775-2.605.52-3.38-.572-.776-1.092-.52-2.605.572-3.38 3.363-2.39 7.38-3.414 11.303-3.072l-6.743-6.744c-3.731.841-7.215 2.56-10.159 5.021-1.027.859-2.556.722-3.415-.305-.858-1.027-.722-2.556.305-3.414 2.772-2.318 5.942-4.087 9.34-5.23l-5.633-5.634c-3.356 1.496-6.467 3.496-9.225 5.934-1.003.886-2.535.792-3.422-.211-.887-1.003-.792-2.535.211-3.422 2.666-2.357 5.624-4.353 8.796-5.941L6.286 9.714c-.947-.947-.947-2.481 0-3.428.868-.868 2.23-.94 3.18-.217zm35.04 21.474c2.167 1.057 4.193 2.382 6.032 3.942 1.021.866 1.146 2.396.28 3.417-.866 1.02-2.396 1.146-3.417.28-1.53-1.3-3.218-2.402-5.022-3.282-1.203-.587-1.702-2.039-1.115-3.242.587-1.203 2.038-1.703 3.242-1.115zm14.746-4.634c1.004.886 1.1 2.418.214 3.422-.885 1.004-2.417 1.1-3.421.214-7.402-6.53-17.14-9.77-26.978-8.977-1.334.107-2.503-.887-2.61-2.222-.108-1.334.886-2.503 2.221-2.61 11.15-.9 22.186 2.773 30.574 10.173z" transform="translate(-930 -911) translate(930 911) matrix(-1 0 0 1 64 0)"/>
            </g>
        </g>
    </g>
</svg>
