<svg xmlns="http://www.w3.org/2000/svg" viewBox="0 0 64 64" style="height: 100%; width: 100%;">
    <g fill="none" fill-rule="evenodd">
        <g fill="#000">
            <g>
                <path class="fill" d="M30.52 12.51c1.685-1.226 4.139-.103 4.139 1.893v35.194c0 1.996-2.454 3.119-4.138 1.893l-12.45-9.909H7.898c-1.416 0-2.564-1.074-2.564-2.399V24.818c0-1.325 1.148-2.4 2.564-2.4h10.175zm20.427.163c10.293 10.667 10.293 27.987 0 38.654-.884.915-2.297.894-3.156-.047-.86-.942-.84-2.448.044-3.364 8.49-8.799 8.49-23.033 0-31.832-.884-.916-.904-2.422-.044-3.364.86-.941 2.272-.962 3.156-.047zm-8.492 8.799c5.597 5.8 5.597 15.231 0 21.031-.884.916-2.297.895-3.156-.046-.86-.942-.84-2.448.044-3.364 3.794-3.932 3.794-10.279 0-14.211-.884-.916-.904-2.422-.044-3.363.859-.942 2.272-.963 3.156-.047z" transform="translate(-786 -591) translate(786 591)"/>
            </g>
        </g>
    </g>
</svg>
