<svg xmlns="http://www.w3.org/2000/svg" viewBox="0 0 64 64"><path fill="#000" fill-rule="evenodd" d="M32 5.333a2.667 2.667 0 0 1 .311 5.316l-.311.018H10.667a2.67 2.67 0 0 0-2.65 2.355L8 13.333v37.334a2.667 2.667 0 0 0 2.356 2.648l.31.018H32a2.667 2.667 0 0 1 .311 5.316l-.311.018H10.667a8.001 8.001 0 0 1-7.987-7.53l-.013-.47V13.333a8 8 0 0 1 7.53-7.986l.47-.014H32zm17.634 13.893.252.222 10.666 10.666a2.666 2.666 0 0 1 .222 3.52l-.222.252-10.666 10.666a2.666 2.666 0 0 1-3.993-3.52l.221-.251 4.78-4.782L20 36a2.667 2.667 0 0 1-.311-5.315l.311-.018h33.56l-7.446-7.448a2.668 2.668 0 0 1-.221-3.52l.221-.251a2.666 2.666 0 0 1 3.52-.222z" class="fill"/></svg>