<svg xmlns="http://www.w3.org/2000/svg" viewBox="0 0 64 64" style="height: 100%; width: 100%;">
    <g fill="none" fill-rule="evenodd">
        <g fill="#000">
            <g>
                <path class="fill" d="M32 61.333C15.8 61.333 2.667 48.2 2.667 32S15.8 2.667 32 2.667 61.333 15.8 61.333 32 48.2 61.333 32 61.333zM32 56c13.255 0 24-10.745 24-24S45.255 8 32 8 8 18.745 8 32s10.745 24 24 24zm2.213-18.63c0 1.473-1.194 2.667-2.666 2.667-1.473 0-2.667-1.194-2.667-2.667v-2.69c0-1.148.734-2.168 1.823-2.53.173-.058.532-.195 1.01-.407.809-.36 1.616-.79 2.354-1.282 1.835-1.223 2.813-2.528 2.813-3.786.004-2.6-1.868-4.824-4.432-5.264-2.563-.44-5.07 1.033-5.932 3.487-.49 1.389-2.012 2.119-3.4 1.63-1.39-.488-2.12-2.01-1.632-3.4 1.726-4.907 6.74-7.853 11.866-6.974 5.126.88 8.871 5.328 8.863 10.525 0 3.413-2.022 6.109-5.187 8.22-.975.649-1.94 1.173-2.813 1.578v.893zm-5.333 7.523c0-1.473 1.194-2.667 2.667-2.667 1.472 0 2.666 1.194 2.666 2.667v.44c0 1.473-1.194 2.667-2.666 2.667-1.473 0-2.667-1.194-2.667-2.667v-.31-.13z" transform="translate(-642 -911) translate(642 911)"/>
            </g>
        </g>
    </g>
</svg>
