<svg xmlns="http://www.w3.org/2000/svg" viewBox="0 0 64 64" style="height: 100%; width: 100%;">
    <g fill="none" fill-rule="evenodd">
        <g fill="#000">
            <g>
                <path class="fill" d="M34.667 37.333c7.17 0 13.018 5.66 13.32 12.755l.013.579V56c0 1.473-1.194 2.667-2.667 2.667-1.367 0-2.494-1.03-2.648-2.356L42.667 56v-5.333c0-4.26-3.33-7.743-7.53-7.987l-.47-.013H13.333c-4.26 0-7.743 3.33-7.986 7.53l-.014.47V56c0 1.473-1.194 2.667-2.666 2.667-1.368 0-2.495-1.03-2.65-2.356L0 56v-5.333c0-7.17 5.66-13.019 12.755-13.321l.578-.013h21.334zM54 37.765c5.687 1.468 9.72 6.474 9.986 12.297l.014.605V56c0 1.473-1.194 2.667-2.667 2.667-1.367 0-2.494-1.03-2.648-2.356L58.667 56v-5.331c-.003-3.646-2.47-6.829-6-7.74-1.426-.369-2.284-1.823-1.916-3.249.369-1.426 1.823-2.284 3.249-1.915zM24 5.333c7.364 0 13.333 5.97 13.333 13.334C37.333 26.03 31.363 32 24 32c-7.364 0-13.333-5.97-13.333-13.333 0-7.364 5.97-13.334 13.333-13.334zm19.328.43c5.9 1.51 10.026 6.827 10.026 12.917s-4.126 11.406-10.026 12.917c-1.427.365-2.88-.495-3.245-1.922-.365-1.427.495-2.88 1.922-3.245 3.54-.906 6.016-4.096 6.016-7.75s-2.476-6.844-6.016-7.75c-1.427-.365-2.287-1.818-1.922-3.245.366-1.427 1.818-2.287 3.245-1.922zM24 10.667c-4.418 0-8 3.581-8 8 0 4.418 3.582 8 8 8s8-3.582 8-8c0-4.419-3.582-8-8-8z" transform="translate(-786 -431) translate(786 431)"/>
            </g>
        </g>
    </g>
</svg>
