<svg xmlns="http://www.w3.org/2000/svg" viewBox="0 0 64 64">
    <g fill="none" fill-rule="evenodd">
        <g fill="#000">
            <g>
                <path class="fill" d="M32.097 3.22c2.65 0 5.255.357 7.763 1.054 1.135.316 1.799 1.493 1.483 2.628-.316 1.135-1.492 1.799-2.627 1.483-2.136-.594-4.356-.899-6.619-.899-13.603 0-24.63 11.027-24.63 24.63s11.027 24.63 24.63 24.63 24.63-11.027 24.63-24.63c0-2.227-.295-4.413-.87-6.518-.312-1.136.357-2.31 1.494-2.62 1.136-.312 2.31.357 2.62 1.494.677 2.471 1.023 5.036 1.023 7.644 0 15.96-12.938 28.897-28.897 28.897-15.96 0-28.897-12.937-28.897-28.897C3.2 16.157 16.138 3.22 32.097 3.22zm10.705 34.792c1.456 0 2.485 1.426 2.024 2.808-1.873 5.623-6.937 9.488-12.729 9.488-5.792 0-10.856-3.865-12.73-9.488-.444-1.334.5-2.71 1.875-2.803l.15-.005h21.41zm-3.477 4.266H24.867l.294.382c1.539 1.887 3.718 3.113 6.115 3.342l.314.024.507.015c2.617 0 5.037-1.188 6.743-3.151l.193-.23.292-.382zM21.392 21.954c1.087 0 1.985.814 2.116 1.866l.017.267v5.353c0 1.178-.955 2.133-2.133 2.133-1.088 0-1.986-.814-2.117-1.865l-.017-.268v-5.353c0-1.178.955-2.133 2.134-2.133zm21.41 0c1.088 0 1.985.814 2.117 1.866l.017.267v5.353c0 1.178-.955 2.133-2.134 2.133-1.087 0-1.985-.814-2.116-1.865l-.017-.268v-5.353c0-1.178.955-2.133 2.133-2.133zM54.853 0c.442 0 .8.358.8.8v7.786h7.76c.442 0 .8.359.8.8v2.667c0 .442-.358.8-.8.8h-7.76v7.758c0 .442-.358.8-.8.8h-2.666c-.442 0-.8-.358-.8-.8v-7.758h-7.785c-.441 0-.8-.358-.8-.8V9.387c0-.442.359-.8.8-.8l7.784-.001V.8c0-.442.359-.8.8-.8h2.667z" transform="translate(-1074 -271) translate(1074 271)"/>
            </g>
        </g>
    </g>
</svg>
