<svg xmlns="http://www.w3.org/2000/svg" viewBox="0 0 64 64"><path fill="#000" fill-rule="evenodd" d="M34.667 37.333c7.17 0 13.018 5.66 13.32 12.755l.013.579V56a2.667 2.667 0 0 1-5.315.311L42.667 56v-5.333c0-4.26-3.33-7.743-7.53-7.987l-.47-.013H13.333a8 8 0 0 0-7.986 7.53l-.014.47V56a2.667 2.667 0 0 1-5.316.311L0 56v-5.333c0-7.17 5.66-13.019 12.755-13.321l.578-.013h21.334zM54 37.765a13.333 13.333 0 0 1 9.986 12.297l.014.605V56a2.667 2.667 0 0 1-5.315.311L58.667 56v-5.331a8 8 0 0 0-6-7.74A2.667 2.667 0 1 1 54 37.765zM24 5.333c7.364 0 13.333 5.97 13.333 13.334C37.333 26.03 31.363 32 24 32c-7.364 0-13.333-5.97-13.333-13.333 0-7.364 5.97-13.334 13.333-13.334zm19.328.43a13.333 13.333 0 0 1 0 25.834 2.667 2.667 0 1 1-1.323-5.167 8 8 0 0 0 0-15.5 2.667 2.667 0 1 1 1.323-5.167zM24 10.667a8 8 0 1 0 0 16 8 8 0 0 0 0-16z" class="fill"/></svg>