<svg xmlns="http://www.w3.org/2000/svg" viewBox="0 0 64 64"><path class="fill" d="M58.545 5.498c.08.258.122.526.122.796v46.079a2.666 2.666 0 0 1-3.462 2.546l-17.951-5.61c-.645 5.273-5.14 9.358-10.587 9.358C20.776 58.667 16 53.89 16 48v-5.334h-5.333a8 8 0 0 1-7.997-7.75l-.003-.25V24a8 8 0 0 1 8-8H16L55.205 3.749a2.665 2.665 0 0 1 3.34 1.75zM21.333 44.587V48a5.333 5.333 0 0 0 10.652.398L32 47.92l-10.667-3.333zm32-34.667-32 9.997v18.83l32 9.997V9.92zM16 21.333h-5.333a2.67 2.67 0 0 0-2.65 2.356L8 24v10.667a2.667 2.667 0 0 0 2.667 2.666H16v-16z" fill="#000" fill-rule="evenodd"/></svg>