<svg width="14" height="16" viewBox="0 0 14 16" fill="none" xmlns="http://www.w3.org/2000/svg">
<path fill-rule="evenodd" clip-rule="evenodd" d="M11.496 4.50411C11.7063 4.71439 11.7224 5.04527 11.5445 5.27411L11.496 5.32906L7.825 8.99985L11.496 12.6708C11.7238 12.8986 11.7238 13.2679 11.496 13.4957C11.2857 13.706 10.9548 13.7222 10.726 13.5443L10.671 13.4957L7.00009 9.82475L3.32931 13.4957C3.1015 13.7235 2.73216 13.7235 2.50435 13.4957C2.29407 13.2854 2.27789 12.9546 2.45582 12.7257L2.50435 12.6708L6.17518 8.99985L2.50435 5.32906C2.27654 5.10126 2.27654 4.73191 2.50435 4.50411C2.71463 4.29382 3.04552 4.27765 3.27435 4.45558L3.32931 4.50411L7.00009 8.17494L10.671 4.50411C10.8988 4.2763 11.2682 4.2763 11.496 4.50411Z" fill="#742DDD"/>
</svg>
