<svg xmlns="http://www.w3.org/2000/svg" viewBox="0 0 64 64">
    <g fill="none" fill-rule="evenodd">
        <g fill="#000">
            <g>
                <path class="fill" d="M32 5.333c1.473 0 2.667 1.194 2.667 2.667 0 1.368-1.03 2.495-2.356 2.649l-.311.018H10.667c-1.368 0-2.495 1.03-2.65 2.355L8 13.333v37.334c0 1.367 1.03 2.494 2.356 2.648l.31.018H32c1.473 0 2.667 1.194 2.667 2.667 0 1.368-1.03 2.495-2.356 2.649l-.311.018H10.667c-4.26 0-7.743-3.33-7.987-7.53l-.013-.47V13.333c0-4.26 3.33-7.743 7.53-7.986l.47-.014H32zm17.634 13.893l.252.222 10.666 10.666c.962.962 1.036 2.474.222 3.52l-.222.252-10.666 10.666c-1.042 1.042-2.73 1.042-3.772 0-.96-.961-1.035-2.474-.221-3.52l.221-.251 4.78-4.782L20 36c-1.473 0-2.667-1.194-2.667-2.667 0-1.367 1.03-2.494 2.356-2.648l.311-.018h33.56l-7.446-7.448c-.96-.961-1.035-2.474-.221-3.52l.221-.251c.962-.962 2.474-1.036 3.52-.222z" transform="translate(-498 -751) translate(498 751)"/>
            </g>
        </g>
    </g>
</svg>
