<svg xmlns="http://www.w3.org/2000/svg" viewBox="0 0 64 64">
    <g fill="none" fill-rule="evenodd">
        <g fill="#000">
            <g>
                <path class="fill" d="M37.333 2.667c4.26 0 7.743 3.33 7.987 7.53l.013.47v2.666H56c1.473 0 2.667 1.194 2.667 2.667 0 1.368-1.03 2.495-2.356 2.649l-.311.018h-2.668l.001 34.666c0 4.26-3.33 7.743-7.53 7.987l-.47.013H18.667c-4.26 0-7.743-3.33-7.987-7.53l-.013-.47V18.667H8c-1.473 0-2.667-1.194-2.667-2.667 0-1.368 1.03-2.495 2.356-2.649L8 13.333h10.666v-2.666c0-4.26 3.331-7.743 7.53-7.987l.47-.013h10.667zm10.666 16H16L16 53.333c0 1.368 1.03 2.495 2.356 2.65l.31.017h26.667c1.368 0 2.495-1.03 2.65-2.356l.017-.31V18.666zm-21.332 8c1.367 0 2.494 1.03 2.648 2.355l.018.311v16c0 1.473-1.194 2.667-2.666 2.667-1.368 0-2.495-1.03-2.65-2.356l-.017-.31v-16c0-1.473 1.194-2.667 2.667-2.667zm10.666 0c1.368 0 2.495 1.03 2.65 2.355l.017.311v16C40 46.806 38.806 48 37.333 48c-1.367 0-2.494-1.03-2.648-2.356l-.018-.31v-16c0-1.473 1.194-2.667 2.666-2.667zm0-18.667H26.667c-1.368 0-2.495 1.03-2.65 2.356l-.017.31v2.667h16v-2.666c0-1.368-1.03-2.495-2.356-2.65L37.334 8z" transform="translate(-498 -271) translate(498 271)"/>
            </g>
        </g>
    </g>
</svg>
