<svg xmlns="http://www.w3.org/2000/svg" viewBox="0 0 64 64"><path fill="#000" fill-rule="evenodd" d="m46.14 14.43.562.537 6.631 6.167v-7.8a2.67 2.67 0 0 1 2.356-2.65l.311-.017a2.667 2.667 0 0 1 2.649 2.355l.018.311v16a2.67 2.67 0 0 1-2.356 2.65L56 32H40a2.667 2.667 0 0 1-.311-5.315l.311-.018h11.452l-8.44-7.85c-5.964-5.893-15.168-7.182-22.563-3.156-7.38 4.018-11.172 12.357-9.314 20.455 1.859 8.107 8.935 14.032 17.362 14.518 8.43.487 16.162-4.585 18.967-12.426a2.667 2.667 0 0 1 5.022 1.797C48.88 50.082 38.973 56.582 28.19 55.959c-10.785-.623-19.862-8.222-22.254-18.65C3.542 26.872 8.426 16.135 17.9 10.977c9.227-5.024 20.65-3.579 28.241 3.453z" class="fill"/></svg>