<svg xmlns="http://www.w3.org/2000/svg" viewBox="0 0 64 64"><path class="fill" d="M56 42.667a2.667 2.667 0 0 1 2.649 2.355l.018.311v8c0 4.26-3.33 7.743-7.53 7.987l-.47.013H13.333a8 8 0 0 1-7.986-7.53l-.014-.47v-8a2.667 2.667 0 0 1 5.316-.311l.018.311v8a2.67 2.67 0 0 0 2.355 2.65l.311.017h37.334a2.667 2.667 0 0 0 2.648-2.356l.018-.31v-8A2.667 2.667 0 0 1 56 42.667zm-36.552-8.781a2.666 2.666 0 0 1 3.52-3.993l.251.221 6.114 6.114V5.333a2.667 2.667 0 0 1 5.316-.311l.018.311v30.894l6.114-6.113a2.668 2.668 0 0 1 3.52-.221l.251.221a2.666 2.666 0 0 1 .222 3.52l-.222.252-10.658 10.657a2.341 2.341 0 0 1-.135.128l.127-.119a2.67 2.67 0 0 1-.195.176l-.056.045a1.74 1.74 0 0 1-.086.064l-.056.04-.086.056-.06.036-.081.046-.079.04a2.528 2.528 0 0 1-.14.065l-.09.036c-.023.01-.045.017-.067.025l-.09.03-.063.019c-.043.012-.086.024-.13.034l-.013.003a3.06 3.06 0 0 1-.144.028l-.064.01c-.03.005-.061.009-.092.012l-.084.008a1.727 1.727 0 0 1-.103.006l-.069.002h-.095c-.028 0-.055-.002-.082-.003l.139.003c-.084 0-.167-.004-.249-.011l-.061-.007a1.359 1.359 0 0 1-.092-.012l-.09-.015a2.242 2.242 0 0 1-.118-.025l-.04-.01a2.644 2.644 0 0 1-.34-.11l-.015-.006c-.05-.02-.097-.04-.145-.063l-.042-.02L30.71 45a1.16 1.16 0 0 1-.067-.039c-.03-.018-.059-.035-.087-.054l-.062-.041c-.03-.02-.06-.042-.088-.063l-.04-.03-.008-.007a2.796 2.796 0 0 1-.251-.223L19.448 33.886z" fill="#000" fill-rule="evenodd"/></svg>