<svg xmlns="http://www.w3.org/2000/svg" viewBox="0 0 64 64" style="height: 100%; width: 100%;">
    <g fill="none" fill-rule="evenodd">
        <g fill="#000">
            <g>
                <path class="fill" d="M18.667 34.667c1.472 0 2.666 1.194 2.666 2.666 0 1.368-1.03 2.495-2.355 2.65l-.311.017h-5.334v16c0 1.473-1.194 2.667-2.666 2.667-1.368 0-2.495-1.03-2.65-2.356L8 56V40H2.667C1.194 40 0 38.806 0 37.333c0-1.367 1.03-2.494 2.356-2.648l.31-.018h16zM32 29.333c1.368 0 2.495 1.03 2.649 2.356l.018.311v24c0 1.473-1.194 2.667-2.667 2.667-1.368 0-2.495-1.03-2.649-2.356L29.333 56V32c0-1.473 1.194-2.667 2.667-2.667zM61.333 40C62.806 40 64 41.194 64 42.667c0 1.367-1.03 2.494-2.356 2.648l-.31.018h-5.335L56 56c0 1.473-1.194 2.667-2.667 2.667-1.367 0-2.494-1.03-2.648-2.356L50.667 56l-.001-10.668-5.333.001c-1.472 0-2.666-1.194-2.666-2.666 0-1.368 1.03-2.495 2.355-2.65l.311-.017h16zm-8-34.667c1.368 0 2.495 1.03 2.65 2.356L56 8v24c0 1.473-1.194 2.667-2.667 2.667-1.367 0-2.494-1.03-2.648-2.356L50.667 32V8c0-1.473 1.194-2.667 2.666-2.667zm-42.666 0c1.367 0 2.494 1.03 2.648 2.356l.018.311v18.667c0 1.472-1.194 2.666-2.666 2.666-1.368 0-2.495-1.03-2.65-2.355L8 26.667V8c0-1.473 1.194-2.667 2.667-2.667zm21.333 0c1.368 0 2.495 1.03 2.649 2.356l.018.311-.001 10.666H40c1.473 0 2.667 1.195 2.667 2.667 0 1.368-1.03 2.495-2.356 2.65L40 24H24c-1.473 0-2.667-1.194-2.667-2.667 0-1.367 1.03-2.494 2.356-2.648l.311-.018h5.333V8c0-1.473 1.194-2.667 2.667-2.667z" transform="translate(-210 -1071) translate(210 1071)"/>
            </g>
        </g>
    </g>
</svg>
