<svg xmlns="http://www.w3.org/2000/svg" viewBox="0 0 64 64">
    <g fill="none" fill-rule="evenodd">
        <g fill="#000">
            <g>
                <path class="fill" d="M32 5.06c2.622 0 5.065 1.283 6.561 3.424l.287.439 22.608 37.744c1.421 2.461 1.43 5.492.022 7.962-1.32 2.315-3.698 3.81-6.356 4.014l-.535.024H9.384c-2.842-.032-5.455-1.569-6.862-4.038-1.314-2.305-1.394-5.1-.226-7.493l.27-.506L25.16 8.91c1.45-2.39 4.044-3.85 6.84-3.85zm0 5.333c-.816 0-1.58.372-2.076.99l-.196.28-22.565 37.67c-.474.821-.477 1.831-.008 2.655.41.72 1.129 1.202 1.917 1.318l.341.027h45.144c.948-.01 1.819-.522 2.288-1.345.41-.72.46-1.584.162-2.314l-.148-.304L34.28 11.676c-.483-.797-1.348-1.283-2.28-1.283zm0 32.274c1.473 0 2.667 1.194 2.667 2.666C34.667 46.806 33.473 48 32 48c-1.473 0-2.667-1.194-2.667-2.667 0-1.472 1.194-2.666 2.667-2.666zm0-21.334c1.368 0 2.495 1.03 2.649 2.356l.018.311v10.667c0 1.472-1.194 2.666-2.667 2.666-1.368 0-2.495-1.03-2.649-2.355l-.018-.311V24c0-1.473 1.194-2.667 2.667-2.667z" transform="translate(-354 -911) translate(354 911)"/>
            </g>
        </g>
    </g>
</svg>
