<svg viewBox="0 0 44 64" fill="none" xmlns="http://www.w3.org/2000/svg">
<path class="fill" fill-rule="evenodd" clip-rule="evenodd" d="M22.0001 0C16.109 0 11.3334 4.77563 11.3334 10.6667V32C11.3334 37.891 16.109 42.6667 22.0001 42.6667C27.8911 42.6667 32.6667 37.891 32.6667 32V10.6667C32.6667 4.77563 27.8911 0 22.0001 0ZM16.6667 10.6667C16.6667 7.72115 19.0546 5.33333 22.0001 5.33333C24.9456 5.33333 27.3334 7.72115 27.3334 10.6667V32C27.3334 34.9455 24.9456 37.3333 22.0001 37.3333C19.0546 37.3333 16.6667 34.9455 16.6667 32V10.6667Z"/>
<path class="fill" d="M6.00008 26.6667C6.00008 25.1939 4.80617 24 3.33341 24C1.86066 24 0.666748 25.1939 0.666748 26.6667V32C0.666748 42.879 8.80992 51.856 19.3334 53.1683V58.6667H11.3334C9.86066 58.6667 8.66675 59.8606 8.66675 61.3333C8.66675 62.8061 9.86066 64 11.3334 64H32.6667C34.1395 64 35.3334 62.8061 35.3334 61.3333C35.3334 59.8606 34.1395 58.6667 32.6667 58.6667H24.6667V53.1683C35.1902 51.856 43.3334 42.879 43.3334 32V26.6667C43.3334 25.1939 42.1395 24 40.6667 24C39.194 24 38.0001 25.1939 38.0001 26.6667V32C38.0001 40.8366 30.8366 48 22.0001 48C13.1635 48 6.00008 40.8366 6.00008 32V26.6667Z"/>
</svg>
