<svg xmlns="http://www.w3.org/2000/svg" viewBox="0 0 64 64"><path fill="#000" fill-rule="evenodd" d="M36.613 53.333c2.056 0 3.338 2.227 2.307 4.005a8 8 0 0 1-13.84 0c-.98-1.689.129-3.783 2.004-3.988l.303-.017h9.226zM32 2.667c7.173 0 13.52 3.54 17.387 8.97l5.686-5.687a2.105 2.105 0 0 1 2.85-.117l.127.117a2.105 2.105 0 0 1 0 2.977L8.927 58.05c-.78.781-2.023.82-2.85.117l-.127-.117a2.105 2.105 0 0 1 0-2.977L13.023 48h-7.69l-.355-.019c-3.082-.33-3.082-4.965 0-5.296l.753-.033a5.335 5.335 0 0 0 4.92-4.9l.016-.419V24c0-11.782 9.55-21.333 21.333-21.333zm20.85 16.795c.271 1.253.433 2.548.473 3.874l.01.664v13.333a5.334 5.334 0 0 0 4.936 5.319l.753.033c2.963.318 3.077 4.616.342 5.24l-.342.056-.355.019H24.31l28.54-28.538z" class="fill"/></svg>