<svg xmlns="http://www.w3.org/2000/svg" viewBox="0 0 64 64">
    <g fill="none" fill-rule="evenodd">
        <g fill="#000">
            <g>
                <path class="fill" d="M56 42.667c1.368 0 2.495 1.03 2.649 2.355l.018.311v8c0 4.26-3.33 7.743-7.53 7.987l-.47.013H13.333c-4.26 0-7.743-3.33-7.986-7.53l-.014-.47v-8c0-1.472 1.194-2.666 2.667-2.666 1.368 0 2.495 1.03 2.649 2.355l.018.311v8c0 1.368 1.03 2.495 2.355 2.65l.311.017h37.334c1.367 0 2.494-1.03 2.648-2.356l.018-.31v-8c0-1.473 1.194-2.667 2.667-2.667zm-36.552-8.781c-1.042-1.042-1.042-2.73 0-3.772.961-.96 2.474-1.035 3.52-.221l.251.221 6.114 6.114V5.333c0-1.472 1.194-2.666 2.667-2.666 1.368 0 2.495 1.03 2.649 2.355l.018.311v30.894l6.114-6.113c.961-.96 2.474-1.035 3.52-.221l.251.221c.962.962 1.036 2.474.222 3.52l-.222.252-10.658 10.657c-.043.044-.088.087-.135.128l.127-.119c-.063.063-.128.121-.195.176l-.056.045c-.028.022-.057.044-.086.064l-.056.04-.086.056-.06.036-.081.046-.079.04c-.046.023-.093.045-.14.065l-.09.036c-.023.01-.045.017-.067.025l-.09.03-.063.019c-.043.012-.086.024-.13.034l-.013.003c-.047.01-.095.02-.144.028l-.064.01c-.03.005-.061.009-.092.012l-.084.008c-.034.003-.068.005-.103.006l-.069.002h-.095c-.028 0-.055-.002-.082-.003l.139.003c-.084 0-.167-.004-.249-.011l-.061-.007c-.031-.003-.062-.007-.092-.012l-.09-.015c-.04-.007-.079-.016-.118-.025l-.04-.01c-.116-.029-.23-.066-.34-.11l-.015-.006c-.05-.02-.097-.04-.145-.063l-.042-.02L30.71 45c-.022-.012-.045-.025-.067-.039-.03-.018-.059-.035-.087-.054l-.062-.041c-.03-.02-.06-.042-.088-.063l-.04-.03-.008-.007c-.088-.069-.172-.144-.251-.223L19.448 33.886z" transform="translate(-786 -271) translate(786 271)"/>
            </g>
        </g>
    </g>
</svg>
