<svg xmlns="http://www.w3.org/2000/svg" viewBox="0 0 64 64"><path fill="#000" fill-rule="evenodd" d="m41.636 3.226.251.222a2.668 2.668 0 0 1 .222 3.52l-.222.251-7.219 7.218V27.38l11.209-6.472 2.643-9.86a2.667 2.667 0 0 1 5.218 1.051l-.067.329-2.237 8.35 8.352 2.24a2.668 2.668 0 0 1 1.952 2.938l-.067.328a2.667 2.667 0 0 1-2.937 1.952l-.329-.066-9.861-2.643L37.334 32l11.209 6.47 9.862-2.64.329-.067a2.667 2.667 0 0 1 2.937 1.952l.067.328a2.669 2.669 0 0 1-1.952 2.938l-8.353 2.237 2.238 8.353.067.329a2.666 2.666 0 0 1-5.218 1.052l-2.643-9.861-11.209-6.472v12.944l7.219 7.218a2.667 2.667 0 0 1-3.52 3.993l-.251-.222L32 54.437l-6.114 6.115a2.666 2.666 0 0 1-3.52.222l-.251-.222a2.666 2.666 0 0 1-.222-3.52l.222-.251 7.218-7.22V36.62l-11.209 6.47-2.642 9.863a2.666 2.666 0 0 1-5.218-1.052l.067-.329 2.236-8.351-8.35-2.24a2.665 2.665 0 0 1-1.953-2.937l.067-.328a2.665 2.665 0 0 1 2.937-1.952l.329.066 9.861 2.642L26.667 32l-11.209-6.472-9.86 2.643-.329.066a2.665 2.665 0 0 1-2.937-1.952l-.067-.328a2.668 2.668 0 0 1 1.952-2.938l8.35-2.239-2.235-8.351-.067-.329a2.667 2.667 0 0 1 5.218-1.052l2.642 9.862 11.209 6.47V14.439L22.116 7.22a2.665 2.665 0 0 1 0-3.771 2.666 2.666 0 0 1 3.52-.222l.251.222 6.114 6.112 6.115-6.112a2.666 2.666 0 0 1 3.52-.222z" class="fill"/></svg>