<svg xmlns="http://www.w3.org/2000/svg" viewBox="0 0 64 64"><path class="fill" d="M53.333 21.333a8 8 0 0 1 8 8v24a8 8 0 0 1-8 8h-24a8 8 0 0 1-8-8v-24a8 8 0 0 1 8-8zm0 5.334h-24a2.667 2.667 0 0 0-2.666 2.666v24A2.667 2.667 0 0 0 29.333 56h24A2.667 2.667 0 0 0 56 53.333v-24a2.667 2.667 0 0 0-2.667-2.666zm-18.666-24a8 8 0 0 1 7.986 7.53l.014.47v2.666a2.667 2.667 0 0 1-5.316.311l-.018-.31v-2.667a2.67 2.67 0 0 0-2.355-2.65L34.667 8h-24a2.67 2.67 0 0 0-2.65 2.356l-.017.31v24a2.67 2.67 0 0 0 2.356 2.65l.31.017h2.667a2.667 2.667 0 0 1 .311 5.316l-.31.018h-2.667a8.001 8.001 0 0 1-7.987-7.53l-.013-.47v-24c0-4.26 3.33-7.743 7.53-7.987l.47-.013h24z" fill="#000" fill-rule="evenodd"/></svg>