<svg xmlns="http://www.w3.org/2000/svg" viewBox="0 0 64 64" style="height: 100%; width: 100%;">
    <g fill="none" fill-rule="evenodd">
        <g fill="#000">
            <g>
                <path class="fill" d="M32 2.667c2.946 0 5.333 2.387 5.333 5.333v.24c.007 1.754 1.055 3.336 2.667 4.027 1.646.726 3.568.377 4.853-.88l.16-.16c1-1.002 2.358-1.565 3.774-1.565 1.415 0 2.773.563 3.773 1.565 1.001 1 1.564 2.357 1.564 3.773s-.563 2.773-1.564 3.773l-.16.16c-1.258 1.286-1.606 3.208-.88 4.854V24c.69 1.612 2.273 2.66 4.027 2.667H56c2.946 0 5.333 2.387 5.333 5.333S58.946 37.333 56 37.333h-.24c-1.754.007-3.336 1.055-4.027 2.667-.726 1.646-.377 3.568.88 4.853l.16.16c1.002 1 1.565 2.358 1.565 3.774 0 1.415-.563 2.773-1.565 3.773-1 1.001-2.357 1.564-3.773 1.564s-2.773-.563-3.773-1.564l-.16-.16c-1.286-1.258-3.208-1.606-4.854-.88-1.612.69-2.66 2.273-2.666 4.027V56c0 2.946-2.388 5.333-5.334 5.333-2.945 0-5.333-2.387-5.333-5.333v-.24c-.042-1.806-1.184-3.403-2.88-4.027-1.646-.726-3.568-.377-4.853.88l-.16.16c-1 1.002-2.358 1.565-3.774 1.565-1.415 0-2.773-.563-3.773-1.565-1.001-1-1.564-2.357-1.564-3.773s.563-2.773 1.564-3.773l.16-.16c1.258-1.286 1.606-3.208.88-4.854-.69-1.612-2.273-2.66-4.027-2.666H8c-2.946 0-5.333-2.388-5.333-5.334 0-2.945 2.387-5.333 5.333-5.333h.24c1.806-.042 3.403-1.184 4.027-2.88.726-1.646.377-3.568-.88-4.853l-.16-.16c-1.002-1-1.565-2.358-1.565-3.774 0-1.415.563-2.773 1.565-3.773 1-1.001 2.357-1.564 3.773-1.564s2.773.563 3.773 1.564l.16.16c1.286 1.258 3.208 1.606 4.854.88H24c1.612-.69 2.66-2.273 2.667-4.027V8c0-2.946 2.387-5.333 5.333-5.333zM32 24c-4.418 0-8 3.582-8 8s3.582 8 8 8 8-3.582 8-8-3.582-8-8-8z" transform="translate(-786 -1071) translate(786 1071)"/>
            </g>
        </g>
    </g>
</svg>
