<svg xmlns="http://www.w3.org/2000/svg" viewBox="0 0 64 64"><path fill="#000" fill-rule="evenodd" d="m55.62 19.616.067.123A26.552 26.552 0 0 1 58.667 32c0 4.326-1.03 8.41-2.864 12.025-1.012 2.726-1.235 4.847-.67 6.363.71 1.903 1.598 3.49 2.662 4.758 1.54 1.586 1.039 2.696-1.506 3.33-2.09.521-5.716-.027-10.879-1.646l-.488-.155-1.594-.527A26.56 26.56 0 0 1 32 58.667a26.55 26.55 0 0 1-12.326-3.014l-.059-.03 4-4A21.24 21.24 0 0 0 32 53.333c2.993 0 5.89-.614 8.562-1.786l.498-.226 1.925-.905 3.613 1.196.695.219c.728.225 1.414.423 2.054.595l.472.125.485.121-.167-.42-.2-.594c-.814-2.685-.484-5.681.713-9.065l.154-.425.106-.284.528-1.084a21.188 21.188 0 0 0 1.895-8.8 21.24 21.24 0 0 0-1.71-8.385l3.997-3.999zm2.266-13.502a2.668 2.668 0 0 1 .221 3.52l-.221.252-48 48a2.668 2.668 0 0 1-3.993-3.52l.221-.252 5.238-5.237a26.563 26.563 0 0 1-6.015-16.412L5.333 32C5.333 17.272 17.273 5.333 32 5.333a26.55 26.55 0 0 1 16.877 6.02l5.237-5.239a2.668 2.668 0 0 1 3.772 0zM32 10.667c-11.782 0-21.333 9.55-21.333 21.333 0 4.836 1.614 9.401 4.48 13.084l29.936-29.938A21.248 21.248 0 0 0 32 10.666z" class="fill"/></svg>