<svg xmlns="http://www.w3.org/2000/svg" viewBox="0 0 64 64"><path class="fill" d="M50.667 5.333a8 8 0 0 1 8 8v37.334a8 8 0 0 1-8 8H13.333a8 8 0 0 1-8-8V13.333a8 8 0 0 1 8-8zm0 5.334H13.333a2.667 2.667 0 0 0-2.666 2.666v37.334a2.667 2.667 0 0 0 2.666 2.666h37.334a2.667 2.667 0 0 0 2.666-2.666V13.333a2.667 2.667 0 0 0-2.666-2.666zm-18.667 8a2.667 2.667 0 0 1 2.649 2.355l.018.311v8h8a2.667 2.667 0 0 1 .311 5.316l-.311.018h-8v8a2.667 2.667 0 0 1-5.316.311l-.018-.311v-8h-8a2.667 2.667 0 0 1-.311-5.316l.311-.018h8v-8A2.667 2.667 0 0 1 32 18.667z" fill="#000" fill-rule="evenodd"/></svg>