<svg xmlns="http://www.w3.org/2000/svg" viewBox="0 0 64 64" style="height: 100%; width: 100%;">
    <g fill="none" fill-rule="evenodd">
        <g fill="#000">
            <g>
                <path class="fill" d="M40 5.333c.892 0 1.724.446 2.219 1.188l4.541 6.812H56c4.26 0 7.743 3.33 7.986 7.53l.014.47v29.334c0 4.418-3.582 8-8 8H8c-4.418 0-8-3.582-8-8V21.333c0-4.418 3.582-8 8-8h9.237l4.544-6.812c.433-.65 1.125-1.072 1.888-1.167l.331-.02zm-1.43 5.334H25.428l-4.542 6.812c-.432.65-1.124 1.072-1.887 1.167l-.331.02H8c-1.473 0-2.667 1.195-2.667 2.667v29.334c0 1.472 1.194 2.666 2.667 2.666h48c1.473 0 2.667-1.194 2.667-2.666V21.333c0-1.472-1.194-2.666-2.667-2.666H45.333c-.891 0-1.724-.446-2.218-1.188l-4.544-6.812zM32 21.333c7.364 0 13.333 5.97 13.333 13.334C45.333 42.03 39.363 48 32 48c-7.364 0-13.333-5.97-13.333-13.333 0-7.364 5.97-13.334 13.333-13.334zm0 5.334c-4.418 0-8 3.581-8 8 0 4.418 3.582 8 8 8s8-3.582 8-8c0-4.419-3.582-8-8-8z" transform="translate(-66 -591) translate(66 591)"/>
            </g>
        </g>
    </g>
</svg>
