<svg width="32" height="32" viewBox="0 0 32 32" fill="none" xmlns="http://www.w3.org/2000/svg">
<path opacity="0.25" fill-rule="evenodd" clip-rule="evenodd" d="M30.7649 15.1223C30.7646 15.1466 30.7646 15.1695 30.7642 15.1939C30.7404 17.4776 30.6504 18.7711 30.4349 20.0762C29.7374 24.1814 27.8081 26.8745 24.5476 28.3005C22.9664 28.9855 21.2978 29.3524 19.0258 29.4987C17.8688 29.5717 13.8295 29.5386 12.6743 29.4467C10.4056 29.2632 8.74493 28.869 7.17839 28.1582C3.94813 26.679 2.07492 23.9548 1.46309 19.8391C1.27456 18.5306 1.21153 17.2358 1.23523 14.9522C1.23558 14.9278 1.23579 14.9049 1.23614 14.8806C1.261 12.6424 1.35127 11.3612 1.56446 10.07C2.57374 4.11492 6.18517 1.09313 12.8413 0.652771C13.8729 0.58505 18.2882 0.61488 19.3253 0.69945C21.5939 0.883066 23.2544 1.27721 24.8211 1.98787C28.0514 3.46714 29.9245 6.19126 30.5365 10.3073C30.7228 11.6016 30.7865 12.8842 30.7649 15.1223Z" fill="#D4DBFF"/>
<path fill-rule="evenodd" clip-rule="evenodd" d="M10.5977 5.21047C12.0933 5.01889 13.8943 4.9231 16.0006 4.9231C18.1069 4.9231 19.9078 5.01889 21.4035 5.21047C23.6756 5.50151 25.4934 7.23207 25.8888 9.48071C26.271 11.6538 26.4621 13.8269 26.4621 16C26.4621 18.1731 26.271 20.3462 25.8888 22.5193C25.4934 24.768 23.6756 26.4985 21.4035 26.7896C19.9079 26.9812 18.1069 27.0769 16.0006 27.0769C13.8943 27.0769 12.0934 26.9812 10.5977 26.7896C8.32557 26.4985 6.50783 24.768 6.11235 22.5193C5.73016 20.3462 5.53906 18.1731 5.53906 16C5.53906 13.8269 5.73016 11.6538 6.11235 9.48072C6.50783 7.23208 8.32556 5.50152 10.5977 5.21047Z" fill="#FDF7E0"/>
<path fill-rule="evenodd" clip-rule="evenodd" d="M10.5977 5.21047C12.0933 5.01889 13.8943 4.9231 16.0006 4.9231C18.1069 4.9231 19.9078 5.01889 21.4035 5.21047C23.6756 5.50151 25.4934 7.23207 25.8888 9.48071C26.271 11.6538 26.4621 13.8269 26.4621 16C26.4621 18.1731 26.271 20.3462 25.8888 22.5193C25.4934 24.768 23.6756 26.4985 21.4035 26.7896C19.9079 26.9812 18.1069 27.0769 16.0006 27.0769C13.8943 27.0769 12.0934 26.9812 10.5977 26.7896C8.32557 26.4985 6.50783 24.768 6.11235 22.5193C5.73016 20.3462 5.53906 18.1731 5.53906 16C5.53906 13.8269 5.73016 11.6538 6.11235 9.48072C6.50783 7.23208 8.32556 5.50152 10.5977 5.21047ZM7.32452 9.69391C6.95466 11.7969 6.76983 13.8987 6.76983 16C6.76983 18.1014 6.95466 20.2032 7.32452 22.3061C7.62654 24.0234 9.01593 25.3461 10.7541 25.5688C12.193 25.7531 13.9431 25.8462 16.0006 25.8462C18.0581 25.8462 19.8083 25.7531 21.2471 25.5688C22.9853 25.3461 24.3747 24.0234 24.6767 22.3061C25.0465 20.2031 25.2314 18.1014 25.2314 16C25.2314 13.8987 25.0465 11.7969 24.6767 9.6939C24.3747 7.97666 22.9853 6.6539 21.2471 6.43126C19.8083 6.24695 18.0581 6.15386 16.0006 6.15386C13.9431 6.15386 12.1929 6.24695 10.7541 6.43126C9.01592 6.65391 7.62653 7.97667 7.32452 9.69391Z" fill="url(#paint0_linear_2150:4656)"/>
<path fill-rule="evenodd" clip-rule="evenodd" d="M10.4954 11.9032C12.0228 11.7627 13.8575 11.6924 15.9995 11.6924C18.1562 11.6924 20.0014 11.7795 21.5349 11.9536C21.8872 11.9936 22.1534 12.2917 22.1534 12.6462C22.1534 12.9984 21.8854 13.2926 21.5348 13.3254C20.0147 13.4675 18.1696 13.5385 15.9995 13.5385C13.8443 13.5385 12.0097 13.4685 10.4956 13.3283C10.1274 13.2942 9.8457 12.9853 9.8457 12.6155C9.8457 12.2458 10.1273 11.9371 10.4954 11.9032ZM10.4954 15.5955C12.0228 15.455 13.8575 15.3847 15.9995 15.3847C18.1562 15.3847 20.0014 15.4718 21.5349 15.6459C21.8872 15.6859 22.1534 15.984 22.1534 16.3385C22.1534 16.6907 21.8854 16.9849 21.5348 17.0177C20.0147 17.1598 18.1696 17.2308 15.9995 17.2308C13.8443 17.2308 12.0097 17.1608 10.4956 17.0206C10.1274 16.9865 9.8457 16.6776 9.8457 16.3078C9.8457 15.9381 10.1273 15.6294 10.4954 15.5955ZM13.2303 19.077C12.19 19.077 11.2816 19.1318 10.5049 19.2414C10.1268 19.2947 9.8457 19.6183 9.8457 20.0001C9.8457 20.3822 10.127 20.7061 10.5054 20.7596C11.2766 20.8686 12.1849 20.9232 13.2303 20.9232C14.2904 20.9232 15.2096 20.8671 15.9876 20.755C16.3477 20.7031 16.6149 20.3946 16.6149 20.0308C16.6149 19.6624 16.3502 19.3471 15.9873 19.2834C15.2037 19.1458 14.2847 19.077 13.2303 19.077Z" fill="#E9DAB1"/>
<path fill-rule="evenodd" clip-rule="evenodd" d="M13.8174 3.78227C14.2287 2.99713 15.0514 2.46143 15.9992 2.46143C16.9471 2.46143 17.7698 2.99713 18.1811 3.78227C18.7008 3.82916 19.183 3.89435 19.6276 3.97785C20.3784 4.11884 20.9223 4.77446 20.9223 5.53835C20.9223 6.29962 20.3805 6.9531 19.6324 7.09409C18.6051 7.2877 17.394 7.3845 15.9992 7.3845C14.6045 7.3845 13.3934 7.2877 12.3661 7.09409C11.618 6.9531 11.0762 6.29962 11.0762 5.53835C11.0762 4.77446 11.6201 4.11884 12.3709 3.97785C12.8155 3.89435 13.2977 3.82916 13.8174 3.78227Z" fill="#DF4141"/>
<defs>
<linearGradient id="paint0_linear_2150:4656" x1="3.11321" y1="15.0215" x2="17.1114" y2="30.6121" gradientUnits="userSpaceOnUse">
<stop stop-color="#FFE641"/>
<stop offset="1" stop-color="#FFC918"/>
</linearGradient>
</defs>
</svg>
