<svg xmlns="http://www.w3.org/2000/svg" width="24" height="24" viewBox="0 0 24 24">
    <g fill="none" fill-rule="evenodd">
        <g fill="#FFF">
            <g>
                <path d="M18 3c.513 0 .936.386.993.883L19 4v16c0 .552-.448 1-1 1-.513 0-.936-.386-.993-.883L17 20v-7H7.415l2.292 2.293c.36.36.388.928.083 1.32l-.083.094c-.36.36-.928.388-1.32.083l-.094-.083-4-4c-.36-.36-.388-.928-.083-1.32l.083-.094 4-4c.39-.39 1.024-.39 1.414 0 .36.36.388.928.083 1.32l-.083.094L7.415 11H17V4c0-.552.448-1 1-1z" transform="translate(-1073 -674) translate(1073 674)"/>
            </g>
        </g>
    </g>
</svg>
